<?xml version="1.0" standalone="yes"?>
<svg xmlns="http://www.w3.org/2000/svg" width="747" height="862">
<path style="fill:#000000; stroke:none;" d="M0 0L0 862L747 862L747 0L0 0z"/>
<path style="fill:#00189d; stroke:none;" d="M32 21C34.2345 33.036 34.2489 45.7933 35.0895 58C37.0857 86.9862 38.404 116.055 41.1698 145C44.2879 177.634 45.72 210.364 48.1836 243C51.154 282.349 55.2146 321.633 57.9105 361C60.9923 406.003 63.5364 451.061 67.8302 496C68.7866 506.008 68.4044 515.996 69.0895 526C71.2371 557.36 74.7508 588.639 76.9105 620C77.7607 632.346 78.6579 644.681 79.8302 657C80.2333 661.235 78.8809 666.828 80.6034 670.787C82.1155 674.263 86.9141 675.639 90 677.309C96.9529 681.07 104.251 684.641 111 688.695C141.505 707.017 173.067 723.712 204 741.336C243.662 763.935 283.835 785.966 323 809.449C333.89 815.978 345.214 821.829 356 828.533C361.453 831.922 368.403 837.962 375 838.621C382.924 839.413 391.603 831.747 398 828.012C414.243 818.528 430.58 809.04 447 799.86C498.264 771.199 548.298 740.375 599 710.731C609.451 704.62 620.678 699.755 631 693.647C634.548 691.548 637.379 688.506 641 686.518C647.031 683.207 653.005 679.812 659 676.424C661.677 674.911 665.323 673.709 667.397 671.363C669.617 668.85 669.429 664.168 669.87 661C671.118 652.018 671.298 643.004 672.17 634C675.388 600.77 677.524 567.38 679.039 534C680.797 495.287 686.263 456.664 688.911 418C691.924 373.998 695.879 330.018 698.911 286C699.596 276.051 699.227 265.908 700.17 256C703.094 225.268 706.891 194.771 708.011 164C709.309 128.32 713.464 92.618 716.089 57C716.728 48.3295 717.491 39.6973 718.089 31C718.286 28.1463 720.106 23.1907 717.396 21.0278C714.473 18.6951 707.518 20 704 20C692.373 20 681.62 18.1148 670 18.9105C630.571 21.6107 590.55 20 551 20L193 20L84 20L51 20C44.7611 20 38.0124 19.2228 32 21z"/>
<path style="fill:#062aa0; stroke:none;" d="M375 58C382.399 61.105 393.993 59 402 59L462 59L672 59C664.601 55.895 653.007 58 645 58L585 58L375 58z"/>
<path style="fill:#1353ac; stroke:none;" d="M672 58C674.613 59.0977 677.164 58.9927 680 59L680 66C681.098 63.3873 680.993 60.8354 681 58L672 58z"/>
<path style="fill:#0933a3; stroke:none;" d="M374 59L374 64C374.83 61.9695 374.83 61.0305 374 59z"/>
<path style="fill:#1a66b1; stroke:none;" d="M375 59L375 64C375.683 62.494 375.826 61.6851 376 60L672 60C664.601 56.895 653.007 59 645 59L585 59L375 59z"/>
<path style="fill:#2484b9; stroke:none;" d="M376 60C374.141 68.368 376 77.1903 376 86L376 143L618 143C611.806 140.401 602.686 142 596 142L547 142L377 142L377 61L576 61L640 61C651.835 61 664.335 62.1656 676 60L676 103L672 103L672 152L669 152L669 200C670.44 196.569 669.94 192.688 670.424 189C671.861 178.056 672.121 166.978 673.17 156C674.73 139.673 674.611 123.313 676.17 107C677.683 91.1675 679.956 74.9105 680 59L376 60z"/>
<path style="fill:#2585ba; stroke:none;" d="M377 61L377 142L544 142L593 142C600.661 142 610.281 140.448 617.576 143.019C627.259 146.432 625.099 155.373 624.996 164C624.762 183.68 621.466 203.329 621.015 223C620.852 230.072 623.773 242.304 617.852 247.581C613.606 251.365 607.187 251.667 602 253.358C591.284 256.851 580.629 260.84 570 264.544C534.553 276.897 499.178 289.805 464 302.95C453.354 306.928 442.595 310.366 432 314.55C427.723 316.239 423.258 316.634 420 320C431.019 323.257 444.551 320.593 456 321.039C486.307 322.219 516.641 321.721 547 321.95C554.394 322.005 561.581 321.164 569 321.831C573.449 322.231 577.601 321.237 582 321.129C587.933 320.982 594.011 321.981 600 321.985C603.7 321.988 608.611 320.289 611.852 322.618C618.654 327.506 613.169 343.913 613 351C612.305 380.228 609.941 409.901 607.17 439C603.401 478.577 601.818 518.373 599.089 558C598.427 567.619 597.25 577.372 597.015 587C596.88 592.493 597.96 599.188 594.436 603.895C591.271 608.123 585.372 609.926 581 612.618C569.804 619.512 558.251 625.78 547 632.615C507.301 656.733 466.667 679.781 426 702.269C413.439 709.215 400.005 715.364 388 723.143C383.668 725.95 377.97 728.75 375 733L380 733L380 778C385.059 776.788 388.979 773.183 394 772L394 769L405 766L405 763C408.593 762.509 410.824 761.542 412 758C416.021 757.576 421.792 756.131 423 752C427.489 751.402 432.491 749.544 434 745C438.644 744.617 443.392 743.841 445 739C451.066 738.192 465.004 732.011 467 726C471.021 725.576 476.792 724.131 478 720L486 718C489.231 712.025 497.839 713.507 500 707C506.066 706.192 520.004 700.011 522 694C528.066 693.192 542.004 687.011 544 681C548.021 680.576 553.792 679.131 555 675L563 673L563 670C566.274 670.414 569.713 671.342 573 670.578C582.412 668.392 592.552 659.62 600.424 654.22C607.406 649.431 615.681 644.947 623.17 640.818C627.348 638.514 632.221 637.31 635.235 633.275C638.994 628.243 637.658 620.835 638.424 615C640.713 597.569 641.709 579.552 642.911 562C646.221 513.652 649.235 465.282 653.83 417C654.494 410.031 653.506 402.969 654.17 396C658.292 352.685 661.12 309.366 664.089 266C665.281 248.598 668.2 231.378 668.961 214C669.862 193.417 669 172.604 669 152L672 152L672 103L676 103L676 60C662.456 61.7117 648.649 61 635 61L572 61L377 61z"/>
<path style="fill:#1557ad; stroke:none;" d="M679 67L679 80C680.591 76.2087 680.591 70.7912 679 67z"/>
<path style="fill:#0933a3; stroke:none;" d="M374 68L374 143C376.189 137.784 375 130.619 375 125L375 88C375 81.8459 376.395 73.7073 374 68z"/>
<path style="fill:#1c6db3; stroke:none;" d="M375 68L375 143C377.189 137.784 376 130.619 376 125L376 88C376 81.8459 377.395 73.7073 375 68z"/>
<path style="fill:#175eaf; stroke:none;" d="M678 80L678 91C679.431 87.59 679.431 83.41 678 80z"/>
<path style="fill:#1862b0; stroke:none;" d="M677 91L677 104C678.591 100.209 678.591 94.7913 677 91z"/>
<path style="fill:#1b69b2; stroke:none;" d="M676 104L676 116C677.512 112.396 677.512 107.604 676 104z"/>
<path style="fill:#072da2; stroke:none;" d="M677 104L677 116C678.512 112.396 678.512 107.604 677 104z"/>
<path style="fill:#1c6db3; stroke:none;" d="M675 116L675 128C676.512 124.396 676.512 119.604 675 116z"/>
<path style="fill:#0933a3; stroke:none;" d="M676 116L676 128C677.512 124.396 677.512 119.604 676 116z"/>
<path style="fill:#0a36a4; stroke:none;" d="M675 128L675 140C676.512 136.396 676.512 131.604 675 128z"/>
<path style="fill:#0c3ca6; stroke:none;" d="M674 141L674 152C675.431 148.59 675.431 144.41 674 141z"/>
<path style="fill:#000000; stroke:none;" d="M345 243C333.141 251.105 317.33 254.004 304 259.064C272.429 271.047 240.633 282.425 209 294.316C198.289 298.342 187.635 302.297 177 306.551C170.664 309.086 163.672 311.179 158.019 315.105C150.756 320.15 152.554 331.221 153.576 339C156.045 357.81 156.032 377.099 157.83 396C158.59 403.984 155.272 416.258 166.001 418.351C171.878 419.498 178.961 418 185 418C202.004 418 218.951 417 236 417L398 417L454 417C460.704 417 471.661 414.901 477.852 417.603C483.666 420.142 481 435.738 481 441L481 499C481 505.166 483.14 516.346 479.972 521.791C477.501 526.039 471.086 528.62 467 531.01C457.069 536.82 447.068 542.456 437 548.025C424.643 554.861 412.043 561.816 400 569.202C393.727 573.049 385.402 579.69 378 580.845C370.905 581.952 360.813 572.982 355 569.616C337.774 559.642 319.988 550.453 303 540.061C297.807 536.884 288.204 534.226 285.028 528.79C282.311 524.14 284 515.236 284 510C284 494.344 283.653 478.65 283.861 463C283.942 456.949 286.352 444.988 281.682 440.318C276.826 435.462 263.374 438 257 438L189 438C183 438 176.999 437.96 171 438.001C168.071 438.021 164.684 437.849 162.603 440.318C158.469 445.225 161.277 457.184 161.83 463C163.599 481.583 164.628 500.373 165.91 519C167.237 538.26 169.513 557.711 169.985 577C170.171 584.559 171.309 591.562 171.907 599C172.222 602.929 171.31 607.34 173.179 610.985C175.523 615.557 181.005 618.753 185 621.762C196.134 630.145 208.935 636.51 221 643.427C258.267 664.793 295.253 686.797 333 707.309C342.814 712.642 352.247 718.694 362 724.138C365.737 726.224 370.697 729.961 375 730.448C381.71 731.208 390.244 721.792 396 718.82C417.348 707.8 437.969 695.534 459 683.861C490.255 666.514 520.596 647.384 552 630.309C562.233 624.745 572.105 618.711 582 612.618C586.212 610.025 592.319 608.246 595.062 603.895C597.919 599.363 596.89 593.077 597.015 588C597.25 578.372 598.427 568.619 599.089 559L607.089 441C609.129 411.39 612.294 381.68 613 352C613.159 345.301 614.467 338.677 614.911 332C615.097 329.198 615.334 325.612 613.397 323.318C610.321 319.675 604.997 321.862 601 321.946C594.667 322.078 588.31 320.932 582 321.054C577.949 321.132 574.083 322.197 570 321.829C562.2 321.128 554.741 322.029 547 321.872C520.01 321.325 492.971 321.594 466 321.09C451.263 320.814 434.365 323.42 420 320C424.009 317.083 428.443 316.349 433 314.55C443.595 310.366 454.354 306.928 465 302.95C499.881 289.916 535.152 277.999 570 264.915C581.337 260.659 593.333 256.036 605 252.746C609.91 251.362 617.184 250.872 619.972 245.892C623.436 239.705 620.778 229.735 621.04 223C621.754 204.673 623.657 186.298 624.911 168C625.264 162.841 627.519 148.093 622.837 144.988C619.593 142.837 614.72 143.019 611 143.001L590 143L508 143L251 143L177 143L156 143C152.619 143 148.258 142.311 145.059 143.603C137.617 146.609 141.83 160.056 141.985 166C142.5 185.703 145.562 205.291 146.05 225C146.224 232.023 144.172 241.961 153.004 244.424C156.875 245.503 161.071 244.111 165 244.015C174.655 243.778 184.342 244 194 244C224.242 244 254.781 244.284 285 242.961C298.014 242.391 310.929 242 324 242C330.97 242 338.183 241.377 345 243z"/>
<path style="fill:#0d3fa6; stroke:none;" d="M673 153L673 164C674.431 160.59 674.431 156.41 673 153z"/>
<path style="fill:#0f45a8; stroke:none;" d="M672 165L672 176C673.431 172.59 673.431 168.41 672 165z"/>
<path style="fill:#1048a9; stroke:none;" d="M671 177L671 188C672.431 184.59 672.431 180.41 671 177z"/>
<path style="fill:#1353ac; stroke:none;" d="M670 188L669 217C670.462 213.516 669.876 209.739 670.039 206C670.297 200.124 672.36 193.625 670 188z"/>
<path style="fill:#607cc7; stroke:none;" d="M669 217L669 221C669.71 219.241 669.71 218.759 669 217z"/>
<path style="fill:#428cc3; stroke:none;" d="M668 218L668 227C669.256 224.006 669.256 220.994 668 218z"/>
<path style="fill:#1a36a8; stroke:none;" d="M669 221L669 227C669.951 224.715 669.951 223.285 669 221z"/>
<path style="fill:#1a62b0; stroke:none;" d="M667 232L667 238C667.951 235.715 667.951 234.285 667 232z"/>
<path style="fill:#1b66b1; stroke:none;" d="M666 238L666 250C667.512 246.396 667.512 241.604 666 238z"/>
<path style="fill:#092ca1; stroke:none;" d="M667 238L667 249C668.431 245.59 668.431 241.41 667 238z"/>
<path style="fill:#1d6cb3; stroke:none;" d="M665 250L665 261C666.431 257.59 666.431 253.41 665 250z"/>
<path style="fill:#0a30a2; stroke:none;" d="M666 250L666 261C667.431 257.59 667.431 253.41 666 250z"/>
<path style="fill:#0c36a3; stroke:none;" d="M665 261L665 274C666.591 270.209 666.591 264.791 665 261z"/>
<path style="fill:#1e70b4; stroke:none;" d="M664 262L664 274C665.512 270.396 665.512 265.604 664 262z"/>
<path style="fill:#0d3aa4; stroke:none;" d="M664 274L664 286C665.512 282.396 665.512 277.604 664 274z"/>
<path style="fill:#0f40a6; stroke:none;" d="M663 286L663 298C664.512 294.396 664.512 289.604 663 286z"/>
<path style="fill:#1044a7; stroke:none;" d="M662 298L662 310C663.512 306.396 663.512 301.604 662 298z"/>
<path style="fill:#124aa9; stroke:none;" d="M661 310L661 323C662.591 319.209 662.591 313.791 661 310z"/>
<path style="fill:#577786; stroke:none;" d="M660 322L661 323L660 322z"/>
<path style="fill:#144eaa; stroke:none;" d="M660 323L660 334C661.431 330.59 661.431 326.41 660 323z"/>
<path style="fill:#1654ac; stroke:none;" d="M659 334L659 346C660.512 342.396 660.512 337.604 659 334z"/>
<path style="fill:#1758ad; stroke:none;" d="M658 347L658 359C659.512 355.396 659.512 350.604 658 347z"/>
<path style="fill:#195faf; stroke:none;" d="M657 360L657 370C658.346 366.793 658.346 363.207 657 360z"/>
<path style="fill:#1c69b2; stroke:none;" d="M656 370C656 382.388 654 394.592 654 407C655.345 403.796 654.843 400.435 655.17 397C655.934 388.974 659.2 377.626 656 370z"/>
<path style="fill:#092ca1; stroke:none;" d="M656 383L656 394C657.431 390.59 657.431 386.41 656 383z"/>
<path style="fill:#0b33a3; stroke:none;" d="M655 394L655 407C656.591 403.209 656.591 397.791 655 394z"/>
<path style="fill:#0c36a3; stroke:none;" d="M654 407L654 419C655.512 415.396 655.512 410.604 654 407z"/>
<path style="fill:#00189c; stroke:none;" d="M201 417C205.969 419.085 212.65 418 218 418L252 418L373 418L373 526L373 559C373 565.97 373.623 573.183 372 580L376 581L376 417L201 417z"/>
<path style="fill:#0c3fa6; stroke:none;" d="M376 417L376 581C377.661 577.041 377 572.26 377 568L377 544L377 459L377 431C377 426.464 377.769 421.215 376 417z"/>
<path style="fill:#2079b6; stroke:none;" d="M377 417L377 527L377 561C377 567.97 377.623 575.183 376 582C378.955 579.418 378 574.707 378 571L378 543L378 455L378 430C378 425.74 378.661 420.959 377 417z"/>
<path style="fill:#2484b9; stroke:none;" d="M378 417L378 582C381.211 578.468 380.002 573.576 380 569L380 539L380 418L453 418C459 418 465.001 417.959 471 418.001C473.418 418.017 476.526 417.732 478.397 419.603C480.268 421.474 479.983 424.582 479.999 427C480.043 433.333 480 439.667 480 446L480 523C482.903 516.081 481 505.48 481 498L481 443C481 437 481.041 430.999 480.999 425C480.984 422.791 481.361 419.583 479.397 418.028C477.311 416.376 473.469 417.001 471 417L452 417L378 417z"/>
<path style="fill:#2585ba; stroke:none;" d="M380 418L380 528L380 561C380 567.239 379.223 573.988 381 580C392.175 575.348 402.544 568.479 413 562.424C427.308 554.14 441.958 546.433 456 537.706C461.523 534.273 467.455 531.511 472.999 528.089C475.241 526.705 478.25 525.138 479.397 522.624C481.404 518.222 480 510.765 480 506L480 466L480 431C480 427.849 481.216 421.261 478.397 419.028C476.508 417.532 473.236 418.005 471 418L452 418L380 418z"/>
<path style="fill:#0e3da5; stroke:none;" d="M653 419L653 431C654.512 427.396 654.512 422.604 653 419z"/>
<path style="fill:#0f40a6; stroke:none;" d="M652 431L652 443C653.512 439.396 653.512 434.604 652 431z"/>
<path style="fill:#1147a8; stroke:none;" d="M651 444L651 455C652.431 451.59 652.431 447.41 651 444z"/>
<path style="fill:#124aa9; stroke:none;" d="M650 456L650 467C651.431 463.59 651.431 459.41 650 456z"/>
<path style="fill:#1654ac; stroke:none;" d="M649 467C649 479.386 647 491.602 647 504C648.335 500.82 647.883 497.412 648.286 494C649.21 486.172 652.111 474.414 649 467z"/>
<path style="fill:#195faf; stroke:none;" d="M646 504L646 517C647.591 513.209 647.591 507.791 646 504z"/>
<path style="fill:#1b66b1; stroke:none;" d="M645 517L645 529C646.512 525.396 646.512 520.604 645 517z"/>
<path style="fill:#1c69b2; stroke:none;" d="M644 529L644 541C645.512 537.396 645.512 532.604 644 529z"/>
<path style="fill:#0a30a2; stroke:none;" d="M645 529L645 540C646.431 536.59 646.431 532.41 645 529z"/>
<path style="fill:#1d6cb3; stroke:none;" d="M643 541L643 553C644.512 549.396 644.512 544.604 643 541z"/>
<path style="fill:#0b33a3; stroke:none;" d="M644 541L644 553C645.512 549.396 645.512 544.604 644 541z"/>
<path style="fill:#0c36a3; stroke:none;" d="M643 553L643 565C644.512 561.396 644.512 556.604 643 553z"/>
<path style="fill:#0f40a6; stroke:none;" d="M642 565C641.999 577.377 640 589.598 640 602C641.345 598.796 640.843 595.435 641.17 592C641.926 584.063 645.151 572.509 642 565z"/>
<path style="fill:#124aa9; stroke:none;" d="M639 602L639 614C640.512 610.396 640.512 605.604 639 602z"/>
<path style="fill:#1551ab; stroke:none;" d="M638 614L638 626C639.512 622.396 639.512 617.604 638 614z"/>
<path style="fill:#1654ac; stroke:none;" d="M637 627L636 634C637.663 631.565 638.078 629.773 637 627z"/>
<path style="fill:#32639b; stroke:none;" d="M633.667 634.333C633.222 634.778 634.278 634.722 634.333 634.667C634.778 634.222 633.722 634.278 633.667 634.333z"/>
<path style="fill:#2760a3; stroke:none;" d="M621 641C622.659 641.406 623.242 641.309 625 641C623.191 640.426 622.931 640.535 621 641z"/>
<path style="fill:#1b3b99; stroke:none;" d="M619.667 643.333C619.222 643.778 620.278 643.722 620.333 643.667C620.778 643.222 619.722 643.278 619.667 643.333z"/>
<path style="fill:#225ba4; stroke:none;" d="M614 647L617 646C615.222 645.045 614.979 645.234 614 647z"/>
<path style="fill:#315b97; stroke:none;" d="M611.667 647.333C611.222 647.778 612.278 647.722 612.333 647.667C612.778 647.222 611.722 647.278 611.667 647.333z"/>
<path style="fill:#316ea2; stroke:none;" d="M600 653C601.943 653.622 602.949 653.436 605 653C603.057 652.378 602.051 652.564 600 653z"/>
<path style="fill:#2484b9; stroke:none;" d="M563 670L563 673L555 675C552.749 678.688 548.119 680.07 544 681C540.818 686.885 528.437 692.54 522 694C518.818 699.885 506.437 705.54 500 707C496.769 712.975 488.161 711.493 486 718L478 720C475.749 723.688 471.119 725.07 467 726C463.818 731.885 451.437 737.54 445 739C442.673 743.303 438.641 744.361 434 745C431.788 749.091 427.425 750.997 423 752C420.749 755.688 416.119 757.07 412 758C410.339 761.072 408.375 762.202 405 763L405 766C401.034 766.36 397.808 768.117 394 769L394 772C388.889 772.697 384.807 776.217 380 778L380 733L376 733L376 785C384.447 782.832 392.627 776.577 400 772.001C411.471 764.881 423.316 758.3 435.001 751.559C480.497 725.314 525.589 698.42 571 672C568.412 670.622 565.92 670.239 563 670z"/>
<path style="fill:#175faf; stroke:none;" d="M571.667 671.333C571.222 671.778 572.278 671.722 572.333 671.667C572.778 671.222 571.722 671.278 571.667 671.333z"/>
<path style="fill:#1c5aa8; stroke:none;" d="M548 684C549.248 684.685 549.548 684.749 551 685C549.752 684.315 549.452 684.251 548 684z"/>
<path style="fill:#205fa8; stroke:none;" d="M533.667 693.333C533.222 693.778 534.278 693.722 534.333 693.667C534.778 693.222 533.722 693.278 533.667 693.333z"/>
<path style="fill:#25549c; stroke:none;" d="M531.667 694.333C531.222 694.778 532.278 694.722 532.333 694.667C532.778 694.222 531.722 694.278 531.667 694.333z"/>
<path style="fill:#2160a7; stroke:none;" d="M478.667 725.333C478.222 725.778 479.278 725.722 479.333 725.667C479.778 725.222 478.722 725.278 478.667 725.333z"/>
<path style="fill:#0933a3; stroke:none;" d="M374 731L374 784C375.661 780.041 375 775.26 375 771L375 746C375 741.191 375.875 735.469 374 731z"/>
<path style="fill:#1b6bb3; stroke:none;" d="M375 733L375 784C376.661 780.041 376 775.26 376 771L376 747C376 742.465 376.769 737.215 375 733z"/>
<path style="fill:#1852a7; stroke:none;" d="M458.667 737.333C458.222 737.778 459.278 737.722 459.333 737.667C459.778 737.222 458.722 737.278 458.667 737.333z"/>
<path style="fill:#1f4b9d; stroke:none;" d="M456.667 738.333C456.222 738.778 457.278 738.722 457.333 738.667C457.778 738.222 456.722 738.278 456.667 738.333z"/>
<path style="fill:#1245a4; stroke:none;" d="M436.667 750.333C436.222 750.778 437.278 750.722 437.333 750.667C437.778 750.222 436.722 750.278 436.667 750.333z"/>
<path style="fill:#1f5da7; stroke:none;" d="M420 759C421.248 759.685 421.548 759.749 423 760C421.752 759.315 421.452 759.251 420 759z"/>
<path style="fill:#0f36a0; stroke:none;" d="M417 763C418.457 761.897 418.897 761.457 420 760C417.876 760.899 417.899 760.876 417 763z"/>
<path style="fill:#1c5ba9; stroke:none;" d="M405.667 768.333C405.222 768.778 406.278 768.722 406.333 768.667C406.778 768.222 405.722 768.278 405.667 768.333z"/>
<path style="fill:#22519e; stroke:none;" d="M403.667 769.333C403.222 769.778 404.278 769.722 404.333 769.667C404.778 769.222 403.722 769.278 403.667 769.333z"/>
<path style="fill:#1556ac; stroke:none;" d="M388.667 778.333C388.222 778.778 389.278 778.722 389.333 778.667C389.778 778.222 388.722 778.278 388.667 778.333z"/>
<path style="fill:#154ca6; stroke:none;" d="M383.667 781.333C383.222 781.778 384.278 781.722 384.333 781.667C384.778 781.222 383.722 781.278 383.667 781.333z"/>
</svg>
