<?xml version="1.0" standalone="yes"?>
<svg xmlns="http://www.w3.org/2000/svg" width="738" height="873">
<path style="fill:#000000; stroke:none;" d="M0 0L0 873L738 873L738 0L0 0z"/>
<path style="fill:#ff5138; stroke:none;" d="M668 22.8522C649.229 25.8833 629.03 24 610 24L506 24L183 24L62 24L33 24C30.0436 24.0002 24.2446 22.9879 22.1768 25.7173C19.7451 28.9272 21.9643 39.1274 22.4324 43C24.1492 57.2061 24.8725 71.7224 25.8854 86C30.0247 144.346 34.7455 202.646 38.8854 261C46.1907 363.972 52.3113 467.196 61.8036 570C64.3533 597.613 64.6523 625.435 67.695 653C68.5768 660.989 66.4083 673.972 70.9533 680.857C78.956 692.981 102.726 699.388 115 706.608C154.993 730.131 195.734 752.394 236 775.439C268.059 793.788 300.409 811.786 332 830.925C339.865 835.69 359.962 851.806 369 850.2C377.558 848.68 386.653 841.1 394 836.706C408.162 828.237 422.727 820.324 437 812.019C489.041 781.738 541.667 752.151 593 720.689C609.373 710.654 626.334 701.665 643 692.147C648.506 689.002 659.298 685.404 662.479 679.733C666.987 671.697 665.484 657.026 666.115 648C667.722 624.978 669.479 602.058 671.115 579C676.998 496.071 686.157 413.049 689.983 330C693.348 256.965 701.444 183.904 707.111 111C708.755 89.8547 711.819 68.2007 711.997 47C712.044 41.3558 714.928 31.5185 712.283 26.4123C710.556 23.0793 705.08 24.0013 702 24C691.206 23.9952 678.526 21.1525 668 22.8522z"/>
<path style="fill:#ff6752; stroke:none;" d="M24 49C40.377 55.1204 67.4523 50 85 50C68.623 43.8796 41.5477 49 24 49z"/>
<path style="fill:#ff6852; stroke:none;" d="M312 49C319.763 51.9012 330.744 50 339 50C331.237 47.0988 320.256 49 312 49z"/>
<path style="fill:#ff6751; stroke:none;" d="M392 49C399.507 51.8054 410.02 50 418 50C410.493 47.1946 399.98 49 392 49z"/>
<path style="fill:#ff6752; stroke:none;" d="M433 49C450.635 55.5906 480.097 50 499 50L649 50C631.365 43.4094 601.903 49 583 49L433 49z"/>
<path style="fill:#ff612b; stroke:none;" d="M394 61C400.727 63.5141 409.864 62 417 62L465 62L629 62C622.273 59.4859 613.136 61 606 61L558 61L394 61z"/>
<path style="fill:#ff6723; stroke:none;" d="M365 62C370.955 64.2255 378.685 63 385 63C379.045 60.7745 371.315 62 365 62z"/>
<path style="fill:#ff880a; stroke:none;" d="M385 62C391.985 64.6104 401.587 63 409 63L458 63L627 63C620.015 60.3896 610.413 62 603 62L554 62L385 62z"/>
<path style="fill:#ff7b14; stroke:none;" d="M627 62C641.107 67.272 663.453 56.423 676 65C677.703 60.4813 667.748 62 665 62L627 62z"/>
<path style="fill:#ff6528; stroke:none;" d="M364 63L364 146C366.514 139.273 365 130.136 365 123C365 105.734 370.024 79.1189 364 63z"/>
<path style="fill:#ff9100; stroke:none;" d="M365 63L366 146L391 146C386.644 144.372 381.611 145 377 145L377 74L664 74C662.984 109.675 657.598 145.394 655.115 181C648.024 282.671 641.537 384.461 632.196 486C628.836 522.535 627.607 559.406 624.196 596C623.127 607.47 625.767 627.786 619.725 637.741C613.796 647.509 592.951 655.468 583 660.739C556.124 674.977 531.405 693.839 504 707L505 702C495.606 702.054 489.154 701.299 487 711L502 708C480.035 722.421 456.612 734.648 434 748.027C415.432 759.013 396.873 772.558 377 781C377 767.531 378.227 753.41 376.871 740.011C376.372 735.089 371.618 730.051 366.717 734.309C362.846 737.672 365.843 746.632 365.973 751C366.447 766.971 366 783.021 366 799C389.405 790.001 411.378 772.882 433 760.21C475.248 735.448 517.746 711.059 560 686.289C577.339 676.124 594.85 666.173 612 655.689C617.909 652.077 628.066 648.957 631.715 642.741C637.989 632.054 634.942 607.51 636.193 595C640.644 550.483 643.918 505.672 646.059 461C650.601 366.255 661.405 271.582 668.115 177C670.797 139.195 675.977 100.912 676 63L365 63z"/>
<path style="fill:#ff6f1e; stroke:none;" d="M675 73L675 85C676.413 81.219 676.413 76.781 675 73z"/>
<path style="fill:#ff8709; stroke:none;" d="M365 74L365 146C367.223 140.051 366 132.303 366 126C366 110.918 370.268 88.0965 365 74z"/>
<path style="fill:#ff9101; stroke:none;" d="M377 74L377 145C435.263 145 493.684 148 552 148C565.854 148 580.204 149.073 594 147.804C599.428 147.304 608.209 144.989 612.584 149.412C616.669 153.542 614.136 165.509 613.973 171C613.43 189.302 612.107 207.812 609.945 226C609.178 232.445 609.119 242.496 601.985 245.283C583.568 252.477 553.619 247 534 247C481.682 247 429.178 246 377 246L377 306C431.233 306 484.841 308 539 308C553.93 308 569.133 307.185 584 308.541C589.118 309.007 594.445 306.923 598.843 310.521C604.719 315.328 602.377 326.3 601.568 333C599.253 352.158 598.522 371.743 597.114 391C593.406 441.696 588.821 492.315 585.114 543C583.943 559.013 582.285 574.989 581.114 591C580.672 597.043 581.712 606.541 578.85 611.937C573.868 621.331 554.186 628.139 545 633C545.598 634.195 545.466 633.977 547 635C537.935 639.817 530.633 646.952 521.804 652.16C505.065 662.032 487.675 670.34 472 682C472.598 683.195 472.466 682.977 474 684C455.238 689.511 438.702 700.261 422 710C422 711.797 422.014 711.521 423 713C409.906 719.254 397.728 726.96 385 734C384.352 730.115 379.313 734.017 377 735C377.496 732.857 378.135 731.027 379 729C376.359 729.315 374.416 729.884 372 731L372 733C382.257 739.686 377 769.772 377 781C391.884 776.479 405.586 765.143 419 757.4C446.698 741.412 473.861 724.159 502 709C497.264 707.911 491.612 709.72 487 711C490.79 702.13 495.153 702.135 505 702L504 707C532.381 697.419 558.543 674.36 585 660.212C594.534 655.113 613.789 647.766 619.725 638.569C625.863 629.061 623.158 608.143 624.196 597C627.607 560.406 628.836 523.535 632.196 487C641.537 385.461 648.024 283.671 655.115 182C657.616 146.134 663.509 109.948 664 74L377 74z"/>
<path style="fill:#ff7e11; stroke:none;" d="M674 86L674 95C675.153 91.9106 675.153 89.0895 674 86z"/>
<path style="fill:#ff6628; stroke:none;" d="M674 95L673 116C675.235 110.144 676.219 100.937 674 95z"/>
<path style="fill:#ff9c1a; stroke:none;" d="M609 96C609.741 98.1773 610.103 98.7231 612 100C611.064 98.0513 610.608 97.4498 609 96z"/>
<path style="fill:#ff6b24; stroke:none;" d="M672 121L672 129C673.058 126.161 673.058 123.839 672 121z"/>
<path style="fill:#d66158; stroke:none;" d="M346 138C348.064 138.791 349.776 138.931 352 139L352 137C349.834 137.123 348.085 137.406 346 138z"/>
<path style="fill:#000000; stroke:none;" d="M162 143.433C157.108 144.041 147.131 143.39 143.717 147.412C140.96 150.662 141.87 157.047 142.059 161C142.62 172.693 143 184.26 143 196C143 247.765 148.141 299.325 148.99 351C149.246 366.64 149.922 382.459 151.831 398C152.472 403.222 152.761 411.782 157.297 415.283C161.03 418.164 169.408 417.72 174 417.941C188.296 418.626 202.722 417.119 217 418.115C277.465 422.331 339.355 420 400 420C416.676 420 433.372 419.722 450 419.99C455.023 420.07 464.267 418.195 468.588 421.15C472.599 423.892 470.742 431.042 470.305 435C468.968 447.11 470 459.82 470 472C470 487.807 471.329 504.302 469.432 520C468.883 524.547 470.145 530.765 467.85 534.855C464.795 540.3 456.16 542.165 451 545.008C435.425 553.589 419.585 561.721 404 570.316C393.98 575.843 383.972 581.389 374 587C370.188 589.145 365.583 592.711 361 591.229C339.181 584.175 316.843 566.541 297 555.019C290.787 551.412 278.854 548.291 275.15 541.822C271.931 536.202 274 525.319 274 519C274 499.935 276.175 479.856 274.309 461C273.902 456.884 276.481 451.92 275.196 448.1C272.604 440.397 256.148 443 250 443L187 443C180.389 443 168.004 440.634 162.216 444.15C155.993 447.93 159.476 461.138 159.885 467C161.367 488.23 163.34 509.736 163.973 531C164.568 551.015 166.491 571.03 167.885 591C168.421 598.675 166.621 611.083 170.285 617.93C176.445 629.441 201.804 638.575 213 644.873C248.887 665.058 285.031 685.451 320 707.19C330.813 713.913 341.95 720.115 353 726.439C357.064 728.765 362.094 733.133 367 733.091C371.889 733.049 376.877 728.573 381 726.324C391.744 720.463 402.365 714.343 413 708.284C451.845 686.152 490.496 663.187 530 642.261C542.185 635.806 554.055 628.65 566 621.767C570.532 619.155 577.157 617.22 579.283 611.937C585.351 596.851 582.922 572.292 584.114 556C586.918 517.658 589.545 479.278 593.196 441C596.141 410.115 596.714 378.769 600.432 348C601.444 339.629 606.356 317.912 600.479 311.298C596.043 306.305 587.892 308.631 582 308.186C563.197 306.765 543.858 308 525 308C463.673 308 402.374 307 341 307C323.726 307 306.253 306.232 289 307.059C282.313 307.38 271.557 310.53 265.213 308.168C260.879 306.555 260.749 298.822 260.003 295C257.851 283.986 256.029 272.912 253.376 262C252.404 258 249.593 251.263 250.924 247.216C252.846 241.373 266.521 244.201 271 244.695C291.545 246.963 313.328 245 334 245C400.379 245 466.594 247 533 247C549.993 247 567.01 247.268 584 246.99C589.411 246.901 600.38 247.591 604.785 244.283C609.745 240.557 609.484 230.612 610.169 225C612.412 206.624 613.935 187.513 613.999 169C614.02 162.914 617.824 149.659 609.958 147.412C596.568 143.587 576.118 148 562 148C525.979 148 490.051 147 454 147C397.648 147 340.314 147.64 284 144.941C257.359 143.664 230.695 144.428 204 143.99C190.078 143.761 175.946 141.7 162 143.433z"/>
<path style="fill:#ff6728; stroke:none;" d="M665 215L664 234C665.934 228.837 666.945 220.215 665 215z"/>
<path style="fill:#ff6628; stroke:none;" d="M663 237L663 249C664.413 245.219 664.413 240.781 663 237z"/>
<path style="fill:#ff5138; stroke:none;" d="M364 307L364 245L281 245C274.11 244.998 257.368 240.481 251.728 245.15C249.046 247.369 250.963 252.244 251.568 255C253.473 263.668 255.46 272.296 257.2 281C258.415 287.077 258.514 303.994 263.69 307.84C268.789 311.628 284.777 307.212 291 307.027C315.288 306.307 339.701 307 364 307z"/>
<path style="fill:#ff741d; stroke:none;" d="M364 245L364 307C368.512 294.927 365 275.897 365 263C365 257.257 366.027 250.425 364 245z"/>
<path style="fill:#ff9100; stroke:none;" d="M365 245L365 307L470 307C461.735 303.911 449.791 306 441 306L377 306L377 246L451 247C442.735 243.911 430.791 246 422 246C402.952 246 384.048 245 365 245z"/>
<path style="fill:#ff721f; stroke:none;" d="M661 260L661 271C662.33 267.44 662.33 263.56 661 260z"/>
<path style="fill:#ff632b; stroke:none;" d="M661 271L660 293C662.066 287.472 663.073 276.559 661 271z"/>
<path style="fill:#ff7817; stroke:none;" d="M659 286L659 297C660.33 293.44 660.33 289.56 659 286z"/>
<path style="fill:#ff741e; stroke:none;" d="M657 320L657 327C657.955 324.422 657.955 322.578 657 320z"/>
<path style="fill:#ff6629; stroke:none;" d="M656 330L656 340C657.244 336.671 657.244 333.329 656 330z"/>
<path style="fill:#ff7020; stroke:none;" d="M654 358L654 366C655.058 363.161 655.058 360.839 654 358z"/>
<path style="fill:#ff7d15; stroke:none;" d="M653 369L653 374C653.722 371.974 653.722 371.026 653 369z"/>
<path style="fill:#ff6628; stroke:none;" d="M653 374L652 397C654.156 391.232 655.169 379.806 653 374z"/>
<path style="fill:#ff7a16; stroke:none;" d="M651 394L651 403C652.153 399.911 652.153 397.089 651 394z"/>
<path style="fill:#ff6b24; stroke:none;" d="M650 411L650 420C651.153 416.911 651.153 414.089 650 411z"/>
<path style="fill:#ff9101; stroke:none;" d="M377 421L377 584C385.809 582.911 394.352 576.305 402 572C416.535 563.819 431.1 555.721 446 548.234C451.833 545.303 465.616 541.122 468.283 534.855C471.721 526.773 470 512.743 470 504C470 479.637 468.718 455.802 467 432L471 434C471 430.581 472.291 423.573 469.283 421.15C464.944 417.656 453.349 420.25 448 419.885C425.099 418.322 400.316 421 377 421z"/>
<path style="fill:#ff7f12; stroke:none;" d="M649 419L649 427C650.058 424.161 650.058 421.839 649 419z"/>
<path style="fill:#ff741d; stroke:none;" d="M364 420L364 457C367.098 448.71 367.098 428.29 364 420z"/>
<path style="fill:#ff9100; stroke:none;" d="M365 420L365 592L379 585C372.695 573.006 377 550.428 377 537L377 421L439 421C432.015 418.39 422.413 420 415 420L365 420z"/>
<path style="fill:#d79528; stroke:none;" d="M467 432L467 438C468.005 436.016 468.517 434.179 469 432L467 432z"/>
<path style="fill:#ff7f12; stroke:none;" d="M648 433L648 441C649.058 438.161 649.058 435.839 648 433z"/>
<path style="fill:#b1994b; stroke:none;" d="M468 434L468 438L470 438L470 434L468 434z"/>
<path style="fill:#e1931e; stroke:none;" d="M468 438L468 440L470 440L470 438L468 438z"/>
<path style="fill:#ff771a; stroke:none;" d="M647 444L647 456C648.413 452.219 648.413 447.781 647 444z"/>
<path style="fill:#ff7d15; stroke:none;" d="M646 456L646 472C647.719 467.4 647.719 460.6 646 456z"/>
<path style="fill:#ed772d; stroke:none;" d="M364 457L364 464C365.028 461.72 365.511 459.458 366 457L364 457z"/>
<path style="fill:#ff741d; stroke:none;" d="M364 464L364 591C367.564 581.462 365 567.162 365 557L365 493C365 484.209 367.089 472.265 364 464z"/>
<path style="fill:#ff7919; stroke:none;" d="M641 528L641 535C641.955 532.422 641.955 530.578 641 528z"/>
<path style="fill:#ff7a16; stroke:none;" d="M640 539L639 561C641.403 554.879 642.325 545.22 640 539z"/>
<path style="fill:#ff6b25; stroke:none;" d="M637 581L637 595C638.57 590.798 638.57 585.202 637 581z"/>
<path style="fill:#ff7e13; stroke:none;" d="M636 592L636 601C637.153 597.911 637.153 595.089 636 592z"/>
<path style="fill:#ff6728; stroke:none;" d="M636 601L636 609C637.058 606.161 637.058 603.839 636 601z"/>
<path style="fill:#ff840c; stroke:none;" d="M635 602L634 626C636.484 619.492 637.462 608.587 635 602z"/>
<path style="fill:#ff800f; stroke:none;" d="M633 627L633 637C634.244 633.671 634.244 630.329 633 627z"/>
<path style="fill:#ff9102; stroke:none;" d="M377 728C377.598 729.195 377.466 728.977 379 730C377.695 731.79 377.355 732.794 377 735C379.684 735 386.261 728.955 385 734C397.951 728.883 411.386 720.551 423 713L422 710C439.72 702.748 455.866 691.147 474 684C473.402 682.805 473.534 683.023 472 682C482.671 676.321 492.408 668.617 503 662.688C517.925 654.333 535.271 646.945 547 634C528.681 636.41 505.917 655.03 490 664.392C452.755 686.3 414.446 706.438 377 728z"/>
<path style="fill:#ff6726; stroke:none;" d="M364 733L364 771C368.293 759.512 363.277 745.072 366 733L364 733z"/>
<path style="fill:#ff7810; stroke:none;" d="M365 745L365 785C365 789.57 363.593 796.56 367 800C363.108 782.745 371.141 761.433 365 745z"/>
</svg>
