<?xml version="1.0" standalone="yes"?>
<svg xmlns="http://www.w3.org/2000/svg" width="741" height="869">
<path style="fill:#000000; stroke:none;" d="M0 0L0 869L741 869L741 0L0 0z"/>
<path style="fill:#d6a127; stroke:none;" d="M679 10.4244C660.162 12.8978 640 11 621 11L512 11C460.966 11 409.836 11.9183 359 12C299.083 12.0963 238.999 11 179 11L55 11L25 11C22.0523 11 16.107 9.91913 14.0316 12.6034C11.6454 15.6896 13.8363 26.1932 14.2855 30C16.0418 44.8849 16.8806 60.0446 17.9105 75C21.9984 134.36 26.823 193.646 30.9105 253C38.0072 356.051 46.8474 458.956 53.9105 562C56.0122 592.662 57.8698 623.408 60.8302 654C61.6363 662.33 62.0379 670.674 62.8302 679C63.1536 682.398 62.2341 686.72 64.0278 689.79C66.4508 693.938 72.989 696.279 77 698.579C87.8609 704.805 99.1391 710.195 110 716.421C151.571 740.254 193.411 763.635 235 787.427C268.05 806.335 301.349 825.01 334 844.6C342.6 849.76 351.294 854.742 360 859.72C363.615 861.786 367.583 865.166 372 864.556C380.146 863.43 388.126 856.301 395 852.201C409.478 843.565 424.291 835.119 439 826.861C494.533 795.685 549.283 762.837 604 730.201C621.155 719.969 638.656 710.395 656 700.576C661.217 697.622 673.012 693.655 675.397 687.895C676.486 685.266 676.3 681.804 676.754 679C678.404 668.805 678.535 658.306 679.04 648C679.415 640.351 681.394 632.734 681.791 625C681.98 621.316 680.925 617.703 681.043 614C681.467 600.7 683.174 587.287 684.089 574C689.992 488.279 698.008 402.713 703.911 317C707.104 270.631 711.718 224.366 714.911 178C716.885 149.324 718.444 120.622 721.17 92C723.053 72.228 725.967 51.8666 726 32C726.008 27.0905 729.232 16.7189 725.972 12.6034C723.739 9.78369 717.151 11 714 11C702.503 11 690.365 8.93207 679 10.4244z"/>
<path style="fill:#cdb422; stroke:none;" d="M367 142C409.994 142 452.955 143 496 143L578 143C591.89 143 606.131 142.084 619.985 143.054C623.44 143.296 626.527 144.769 630 145C628.617 155.942 628.664 167.001 627.911 178C626.928 192.339 625.073 206.646 624.089 221C623.637 227.611 623.011 234.379 623 241C622.994 244.338 623.661 248.702 621.566 251.57C617.83 256.688 609.581 256.68 604 257.089C588.358 258.235 572.708 257.999 557 258L367 258L367 326C410.345 326 453.731 327 497 327C536.588 327 576.581 325.889 616 329C610.477 398.979 606.818 469.138 600.17 539C598.432 557.263 598.442 575.738 596.286 594C595.489 600.745 596.63 610.031 592.272 615.787C588.708 620.495 581.041 623.273 576 626.15C564.606 632.655 553.326 639.395 542 646.012C500.882 670.031 459.961 694.33 419 718.603C407.042 725.69 395.077 732.838 383 739.719C378.581 742.237 370.801 744.942 368.028 749.379C365.258 753.81 367 762.933 367 768L367 813C374.776 811.501 381.304 805.588 388 801.604C401.251 793.721 414.652 785.506 428.17 778.105C460.303 760.513 491.348 740.716 523 722.267C541.61 711.419 560.689 701.412 579 689.95C594.097 680.5 609.692 671.711 625 662.604C630.798 659.155 640.396 656.343 643.567 649.957C646.139 644.778 645.638 638.565 646.17 633C647.348 620.672 648.239 608.352 649.089 596C650.905 569.639 654.106 543.353 655.911 517C656.981 501.368 657.018 485.65 658.089 470C664.736 372.949 673.444 276.038 680.089 179C682.122 149.313 685.054 119.69 687.089 90C688.002 76.6884 689.963 63.3568 690 50L447 50L388 50C383.619 50 371.001 47.8494 368.028 51.6034C366.532 53.4919 367.005 56.7639 367 59L367 76L367 142z"/>
<path style="fill:#be9436; stroke:none;" d="M131 140C131.077 142.645 130.997 144.266 133 146C132.439 143.897 131.951 141.941 131 140z"/>
<path style="fill:#3e538c; stroke:none;" d="M132 140C132.168 142.403 132.197 143.46 134 145C133.798 143.15 133.798 141.85 134 140L132 140z"/>
<path style="fill:#0936b1; stroke:none;" d="M133 141C133.406 143.092 133.217 143.02 135 144C134.316 142.42 134.195 142.223 133 141z"/>
<path style="fill:#87785d; stroke:none;" d="M134 141C135.789 142.422 136.706 142.697 139 143L139 141L134 141z"/>
<path style="fill:#6c696f; stroke:none;" d="M139 141L139 143L155 143C150.738 139.771 144.17 141 139 141z"/>
<path style="fill:#837561; stroke:none;" d="M154 141C157.203 143.424 160.138 142.649 164 142.556C171.674 142.372 179.305 142 187 142C183.301 140.448 178.983 141 175 141L154 141z"/>
<path style="fill:#a1844c; stroke:none;" d="M187 141C192.222 143.191 199.368 142 205 142C199.778 139.809 192.632 141 187 141z"/>
<path style="fill:#c19535; stroke:none;" d="M205 141C209.215 142.769 214.464 142 219 142L245 142L339 142C334.785 140.231 329.535 141 325 141L299 141L205 141z"/>
<path style="fill:#a98b44; stroke:none;" d="M126.333 142.667C126.278 142.722 126.222 143.778 126.667 143.333C126.722 143.278 126.778 142.222 126.333 142.667z"/>
<path style="fill:#89795a; stroke:none;" d="M127.333 142.667C127.278 142.722 127.222 143.778 127.667 143.333C127.722 143.278 127.778 142.222 127.333 142.667z"/>
<path style="fill:#0434b5; stroke:none;" d="M162 142L162 144L166 144L166 142L162 142z"/>
<path style="fill:#0835b3; stroke:none;" d="M169 142L169 144L197 144L197 142L169 142z"/>
<path style="fill:#1b3fa5; stroke:none;" d="M197 142L197 144L220 144C214.559 139.878 203.647 142 197 142z"/>
<path style="fill:#2d4899; stroke:none;" d="M219 142C225.065 146.595 238.55 144 246 144L246 142L219 142z"/>
<path style="fill:#485787; stroke:none;" d="M246 142L246 144L262 144L262 142L246 142z"/>
<path style="fill:#5d627a; stroke:none;" d="M262 142L262 144L281 144L281 142L262 142z"/>
<path style="fill:#716b6e; stroke:none;" d="M281 142L281 144L305 143C298.313 140.194 288.233 142 281 142z"/>
<path style="fill:#88775c; stroke:none;" d="M305 142C311.928 144.907 322.503 143 330 143C323.072 140.093 312.497 142 305 142z"/>
<path style="fill:#a88747; stroke:none;" d="M330 142C333.959 143.661 338.74 143 343 143L367 143C363.041 141.339 358.26 142 354 142L330 142z"/>
<path style="fill:#af9f38; stroke:none;" d="M367 142C370.959 143.661 375.74 143 380 143L406 143C402.041 141.339 397.26 142 393 142L367 142z"/>
<path style="fill:#000000; stroke:none;" d="M255 330C257.504 323.076 255.693 317.039 254.424 310C252.384 298.682 250.262 287.375 248.579 276C247.829 270.938 243.78 259.452 248.319 255.603C252.508 252.05 262.829 254 268 254L322 254L533 254L598 254C603.138 254 616.072 257.72 618.972 252.851C620.615 250.093 619.986 246.066 620.001 243C620.029 237.298 620.997 231.716 621 226C621.008 208.107 622.867 189.858 624.089 172C624.499 166.019 629.319 151.857 622.852 148.028C620.094 146.395 616.065 147 613 147L592 147C567.361 147 542.701 146 518 146C427.656 146 337.325 144 247 144C222.254 144 196.654 145.897 172 143.834C163.356 143.111 154.682 143 146 143C142.681 143 138.132 142.261 135.148 144.028C131.172 146.382 131.918 152.06 132.015 156C132.284 167.007 134.478 177.996 134.961 189C135.971 212.033 138.336 235.005 139.91 258C141.599 282.654 142.489 307.401 144.83 332C151.571 402.836 152.089 474.16 158.83 545C160.661 564.239 161.589 583.714 162.91 603C163.36 609.562 161.938 620.081 165.028 625.96C168.088 631.782 176.44 635.136 182 637.966C193.607 643.874 204.503 651.113 216 657.22C252.074 676.382 286.574 698.766 322 719.001C332.357 724.917 342.585 731.05 353 736.86C357.167 739.185 362.24 743.285 367 744.087C369.956 744.586 372.57 742.816 375 741.396C379.951 738.502 385.07 735.905 390 732.985C409.992 721.147 429.633 708.492 450 697.306C483.163 679.091 514.961 658.498 548 640.092C557.824 634.619 567.333 628.739 577 623.015C581.486 620.358 587.375 618.465 590.397 613.957C593.443 609.41 592.877 601.285 593.015 596C593.266 586.378 594.431 576.613 595.089 567C597.855 526.651 601.323 486.351 604.089 446C606.005 418.059 609.671 390.019 610.004 362C610.078 355.735 610.673 349.265 611.089 343C611.279 340.147 612.385 336.792 610.382 334.318C606.476 329.495 592.614 332 587 332L521 332L345 332L291 332C279.111 332 266.642 332.772 255 330z"/>
<path style="fill:#0b38b0; stroke:none;" d="M299 143L299 145L339 145C335.309 142.204 330.485 143 326 143L299 143z"/>
<path style="fill:#1b3fa5; stroke:none;" d="M338 143C343.911 147.478 356.749 145 364 145L364 143L338 143z"/>
<path style="fill:#304e93; stroke:none;" d="M364 143L364 145L390 145L390 143L364 143z"/>
<path style="fill:#425a87; stroke:none;" d="M390 143L390 145L406 145L406 143L390 143z"/>
<path style="fill:#5c6b77; stroke:none;" d="M406 143L406 145L422 145L422 143L406 143z"/>
<path style="fill:#66716e; stroke:none;" d="M422 143L422 145C427.642 145 433.563 145.607 439 144C434.026 141.913 427.362 143 422 143z"/>
<path style="fill:#7a7d5f; stroke:none;" d="M439 143C444.469 145.295 452.099 144 458 144C452.531 141.705 444.901 143 439 143z"/>
<path style="fill:#8f8a51; stroke:none;" d="M458 143C461.959 144.661 466.74 144 471 144L497 144C493.042 142.339 488.26 143 484 143L458 143z"/>
<path style="fill:#9a9148; stroke:none;" d="M497 143C503.928 145.907 514.503 144 522 144C515.072 141.093 504.497 143 497 143z"/>
<path style="fill:#a99b3d; stroke:none;" d="M522 143C530.367 146.511 543.924 144 553 144C544.633 140.489 531.076 143 522 143z"/>
<path style="fill:#c2ac2a; stroke:none;" d="M553 143C559.436 145.701 569.049 144 576 144L625 144C618.564 141.299 608.951 143 602 143L553 143z"/>
<path style="fill:#0835b3; stroke:none;" d="M438 144L438 146L498 146L498 144L438 144z"/>
<path style="fill:#1e42a2; stroke:none;" d="M498 144L498 146L523 146L523 144L498 144z"/>
<path style="fill:#304e96; stroke:none;" d="M523 144L523 146L539 146L539 144L523 144z"/>
<path style="fill:#485f86; stroke:none;" d="M539 144L539 146C542.169 145.992 544.959 145.9 548 145C545.11 143.787 542.126 144.002 539 144z"/>
<path style="fill:#5a6b77; stroke:none;" d="M547 145C554.111 147.984 567.565 146.77 575 145C568.187 142.141 554.035 142.921 547 145z"/>
<path style="fill:#727966; stroke:none;" d="M575 144C581.928 146.907 592.503 145 600 145C593.072 142.093 582.497 144 575 144z"/>
<path style="fill:#898855; stroke:none;" d="M600 144C606.928 146.907 617.503 145 625 145C618.072 142.093 607.497 144 600 144z"/>
<path style="fill:#0635b3; stroke:none;" d="M573 145L573 147C583.67 147 596.753 149.029 607 146C603.301 144.448 598.983 145 595 145L573 145z"/>
<path style="fill:#123cab; stroke:none;" d="M606 146C611.372 148.254 619.417 147.329 625 146C619.8 143.818 611.342 144.421 606 146z"/>
<path style="fill:#a39a3f; stroke:none;" d="M625 145C626.769 145.779 628.036 145.912 630 146C628.231 145.221 626.964 145.088 625 145z"/>
<path style="fill:#0033b7; stroke:none;" d="M623 146C624.439 148.607 625.038 149.082 628 149L628 147L623 146z"/>
<path style="fill:#23499e; stroke:none;" d="M626 146L628 149C629.118 146.86 628.251 146.473 626 146z"/>
<path style="fill:#7f835c; stroke:none;" d="M629 146L629 149C629.696 147.446 629.696 147.554 629 146z"/>
<path style="fill:#1a41a7; stroke:none;" d="M627 149C626.356 151.106 626.094 152.795 626 155L628 155C627.953 152.747 627.874 151.052 627 149z"/>
<path style="fill:#a09544; stroke:none;" d="M628 149L628 153C628.71 151.241 628.71 150.759 628 149z"/>
<path style="fill:#c0a82d; stroke:none;" d="M628 153L628 167C629.667 163.028 629.667 156.972 628 153z"/>
<path style="fill:#2c4a9c; stroke:none;" d="M626 155L627 167C628.552 163.303 628 158.983 628 155L626 155z"/>
<path style="fill:#0033b7; stroke:none;" d="M625 159C624.919 188.338 620 217.624 620 247L622 247C622 217.624 627 188.44 627 159L625 159z"/>
<path style="fill:#a88a45; stroke:none;" d="M131 161L131 180C133.333 174.452 132.999 166.988 133 161L131 161z"/>
<path style="fill:#848060; stroke:none;" d="M627 167L627 173C627.951 170.715 627.951 169.285 627 167z"/>
<path style="fill:#2f4a98; stroke:none;" d="M132 171L132 179L134 179L134 171L132 171z"/>
<path style="fill:#bca332; stroke:none;" d="M627 173L627 182C628.256 179.006 628.256 175.994 627 173z"/>
<path style="fill:#0033b7; stroke:none;" d="M132 179C132.11 192.278 134.003 205.752 134.91 219C138.127 265.969 140.872 313.018 144.09 360C146.094 389.265 150 418.638 150 448L152 448C152 411.986 147.548 375.897 145.09 340C141.414 286.329 138.233 232.637 134 179L132 179z"/>
<path style="fill:#857362; stroke:none;" d="M131 180L131 186C131.951 183.715 131.951 182.285 131 180z"/>
<path style="fill:#536085; stroke:none;" d="M626 181L626 184C626.696 182.446 626.696 182.554 626 181z"/>
<path style="fill:#908657; stroke:none;" d="M626 184L626 189C626.83 186.97 626.83 186.03 626 184z"/>
<path style="fill:#30489a; stroke:none;" d="M132 186L132 194C133.161 191.23 133.161 188.77 132 186z"/>
<path style="fill:#384f95; stroke:none;" d="M625 193L625 196C625.696 194.446 625.696 194.554 625 193z"/>
<path style="fill:#565a83; stroke:none;" d="M132 194L132 197C132.696 195.446 132.696 195.554 132 194z"/>
<path style="fill:#636a78; stroke:none;" d="M625 196L625 199C625.696 197.446 625.696 197.554 625 196z"/>
<path style="fill:#7d6f69; stroke:none;" d="M132 197L132 200C132.696 198.446 132.696 198.554 132 197z"/>
<path style="fill:#1c3fa7; stroke:none;" d="M133 198L133 208C134.346 204.793 134.346 201.207 133 198z"/>
<path style="fill:#a49346; stroke:none;" d="M625 199L625 204C625.83 201.97 625.83 201.03 625 199z"/>
<path style="fill:#ac844a; stroke:none;" d="M132 200L132 205C132.83 202.969 132.83 202.031 132 200z"/>
<path style="fill:#3d4c94; stroke:none;" d="M133 208L133 211C133.696 209.446 133.696 209.554 133 208z"/>
<path style="fill:#2d4a9b; stroke:none;" d="M624 208L624 211C624.696 209.446 624.696 209.554 624 208z"/>
<path style="fill:#65617c; stroke:none;" d="M133 211L133 214C133.696 212.446 133.696 212.554 133 211z"/>
<path style="fill:#5a637f; stroke:none;" d="M624 211L624 214C624.696 212.446 624.696 212.554 624 211z"/>
<path style="fill:#8c7762; stroke:none;" d="M133 214L133 217C133.696 215.446 133.696 215.554 133 214z"/>
<path style="fill:#988d52; stroke:none;" d="M624 214L624 218C624.71 216.241 624.71 215.76 624 214z"/>
<path style="fill:#173bab; stroke:none;" d="M134 215L134 223C135.161 220.23 135.161 217.77 134 215z"/>
<path style="fill:#c89334; stroke:none;" d="M133 217L133 226C134.256 223.006 134.256 219.994 133 217z"/>
<path style="fill:#344f96; stroke:none;" d="M623.333 222.667C623.278 222.722 623.222 223.778 623.667 223.333C623.722 223.278 623.778 222.222 623.333 222.667z"/>
<path style="fill:#3b4c96; stroke:none;" d="M134 223L134 226C134.696 224.446 134.696 224.554 134 223z"/>
<path style="fill:#56647e; stroke:none;" d="M623 224L623 227C623.696 225.446 623.696 225.554 623 224z"/>
<path style="fill:#877166; stroke:none;" d="M134 226L134 231C134.83 228.969 134.83 228.03 134 226z"/>
<path style="fill:#948c50; stroke:none;" d="M623 227L623 233C623.951 230.715 623.951 229.285 623 227z"/>
<path style="fill:#b68945; stroke:none;" d="M134 231L134 236C134.83 233.969 134.83 233.031 134 231z"/>
<path style="fill:#516281; stroke:none;" d="M622 235L622 242C623.059 239.466 623.059 237.534 622 235z"/>
<path style="fill:#6e657a; stroke:none;" d="M135 239L135 243C135.71 241.241 135.71 240.759 135 239z"/>
<path style="fill:#98904b; stroke:none;" d="M622 242L622 252C623.346 248.793 623.346 245.207 622 242z"/>
<path style="fill:#a37b52; stroke:none;" d="M135 243L135 247C135.71 245.241 135.71 244.759 135 243z"/>
<path style="fill:#c59037; stroke:none;" d="M135 247L135 255C136.161 252.23 136.161 249.77 135 247z"/>
<path style="fill:#1d42a5; stroke:none;" d="M620 247L620 251L622 251L622 247L620 247z"/>
<path style="fill:#5f6c75; stroke:none;" d="M620.667 251.333C620.222 251.778 621.278 251.722 621.333 251.667C621.778 251.222 620.722 251.278 620.667 251.333z"/>
<path style="fill:#3d4995; stroke:none;" d="M136.333 252.667C136.278 252.722 136.222 253.778 136.667 253.333C136.722 253.278 136.778 252.222 136.333 252.667z"/>
<path style="fill:#9e9546; stroke:none;" d="M620 252L620 254C621.635 253.455 621.455 253.635 622 252L620 252z"/>
<path style="fill:#796c72; stroke:none;" d="M136 254L136 258C136.71 256.241 136.71 255.759 136 254z"/>
<path style="fill:#0032b9; stroke:none;" d="M248 254L248 256C340.302 256 432.681 258.148 525 258C553.578 257.954 582.422 256.019 611 256L611 254L248 254z"/>
<path style="fill:#1e41a5; stroke:none;" d="M247 255C246.014 256.479 246 256.203 246 258C247.766 257.021 247.955 256.778 247 255z"/>
<path style="fill:#616f73; stroke:none;" d="M611 255L611 257C612.635 256.455 612.455 256.635 613 255L611 255z"/>
<path style="fill:#7b7068; stroke:none;" d="M248 256L248 262C248.779 260.231 248.912 258.964 249 257L257 257C254.11 255.787 251.126 256.002 248 256z"/>
<path style="fill:#60617a; stroke:none;" d="M257 256C261.216 257.769 266.459 257 271 257C266.784 255.231 261.541 256 257 256z"/>
<path style="fill:#3b4f92; stroke:none;" d="M271 256C277.202 258.603 286.298 257 293 257C286.798 254.397 277.702 256 271 256z"/>
<path style="fill:#395391; stroke:none;" d="M601 256C604.163 257.327 607.586 257 611 257C607.837 255.673 604.414 256 601 256z"/>
<path style="fill:#d6a127; stroke:none;" d="M249 257C249.993 279.769 259.019 302.146 260 325L367 325L367 258L249 257z"/>
<path style="fill:#ab8447; stroke:none;" d="M293 257C298.222 259.191 305.368 258 311 258C305.778 255.809 298.632 257 293 257z"/>
<path style="fill:#8e7860; stroke:none;" d="M311 257C317.928 259.907 328.503 258 336 258C329.072 255.093 318.497 257 311 257z"/>
<path style="fill:#706774; stroke:none;" d="M336 257C342.445 259.704 352.032 258 359 258C352.555 255.296 342.968 257 336 257z"/>
<path style="fill:#62697b; stroke:none;" d="M359 257C363.969 259.085 370.65 258 376 258L410 258C405.031 255.915 398.35 257 393 257L359 257z"/>
<path style="fill:#4a5d87; stroke:none;" d="M410 257C414.216 258.769 419.459 258 424 258C419.784 256.231 414.541 257 410 257z"/>
<path style="fill:#324d99; stroke:none;" d="M424 257C426.613 258.098 429.165 257.993 432 258C429.387 256.902 426.836 257.007 424 257z"/>
<path style="fill:#2144a4; stroke:none;" d="M432 257C438.202 259.603 447.298 258 454 258C447.798 255.397 438.702 257 432 257z"/>
<path style="fill:#1f41a5; stroke:none;" d="M533 257C541.367 260.511 554.924 258 564 258C555.633 254.489 542.076 257 533 257z"/>
<path style="fill:#59617f; stroke:none;" d="M564 257C567.432 258.44 571.3 258 575 258C571.568 256.56 567.7 257 564 257z"/>
<path style="fill:#6b6a76; stroke:none;" d="M575 257C577.613 258.098 580.164 257.993 583 258C580.387 256.902 577.836 257.007 575 257z"/>
<path style="fill:#af9d3e; stroke:none;" d="M583 257C588.222 259.191 595.368 258 601 258C595.778 255.809 588.632 257 583 257z"/>
<path style="fill:#c48f38; stroke:none;" d="M136 258L136 269C137.431 265.59 137.431 261.41 136 258z"/>
<path style="fill:#0032b8; stroke:none;" d="M246 258C246.674 273.709 250.817 289.524 253.414 305C254.856 313.597 257.204 321.401 255 330C265.353 333.062 277.289 332 288 332L342 332L523 332L578 332C586.76 332 597.46 330.328 606 332.313C608.839 332.973 611.347 334.849 614 336L615 330C569.402 330 523.572 329.131 478 328.015C436.691 327.003 395.26 328.025 354 327.015C331.696 326.468 309.311 327 287 327L269 327C266.612 326.995 263.521 327.388 261.43 325.972C256.649 322.735 257.344 312.053 256.831 307C255.153 290.48 250.124 274.444 248 258L246 258z"/>
<path style="fill:#bda730; stroke:none;" d="M439 258C445.202 260.603 454.298 259 461 259C454.798 256.397 445.702 258 439 258z"/>
<path style="fill:#ae9f39; stroke:none;" d="M461 258C467.928 260.907 478.503 259 486 259C479.072 256.093 468.497 258 461 258z"/>
<path style="fill:#98914a; stroke:none;" d="M486 258C490.469 259.875 496.191 259 501 259L532 259C527.531 257.125 521.809 258 517 258L486 258z"/>
<path style="fill:#ab9d3b; stroke:none;" d="M532 258C536.471 259.876 542.183 259 547 259C542.529 257.124 536.817 258 532 258z"/>
<path style="fill:#997e53; stroke:none;" d="M249 262L249 265C249.696 263.446 249.696 263.554 249 262z"/>
<path style="fill:#30459e; stroke:none;" d="M137 265L137 268C137.696 266.446 137.696 266.554 137 265z"/>
<path style="fill:#5f617a; stroke:none;" d="M249.333 265.667C249.278 265.722 249.222 266.778 249.667 266.333C249.722 266.278 249.778 265.222 249.333 265.667z"/>
<path style="fill:#b68d3e; stroke:none;" d="M250 266L250 269C250.696 267.446 250.696 267.554 250 266z"/>
<path style="fill:#625f7f; stroke:none;" d="M137 268L137 271C137.696 269.446 137.696 269.554 137 268z"/>
<path style="fill:#716a6e; stroke:none;" d="M250.333 269.667C250.278 269.722 250.222 270.778 250.667 270.333C250.722 270.278 250.778 269.222 250.333 269.667z"/>
<path style="fill:#a47a4f; stroke:none;" d="M137 271L137 275C137.71 273.241 137.71 272.759 137 271z"/>
<path style="fill:#31489b; stroke:none;" d="M250.333 271.667C250.278 271.722 250.222 272.778 250.667 272.333C250.722 272.278 250.778 271.222 250.333 271.667z"/>
<path style="fill:#9c7e53; stroke:none;" d="M251 273L251 276C251.696 274.446 251.696 274.554 251 273z"/>
<path style="fill:#c18c3b; stroke:none;" d="M137 275L137 283C138.161 280.23 138.161 277.77 137 275z"/>
<path style="fill:#3a4b94; stroke:none;" d="M251.333 276.667C251.278 276.722 251.222 277.778 251.667 277.333C251.722 277.278 251.778 276.222 251.333 276.667z"/>
<path style="fill:#b68843; stroke:none;" d="M252 277L252 280C252.696 278.446 252.696 278.554 252 277z"/>
<path style="fill:#3b4a95; stroke:none;" d="M138 280L138 283C138.696 281.446 138.696 281.554 138 280z"/>
<path style="fill:#605c80; stroke:none;" d="M252.333 280.667C252.278 280.722 252.222 281.778 252.667 281.333C252.722 281.278 252.778 280.222 252.333 280.667z"/>
<path style="fill:#b48544; stroke:none;" d="M253 282L253 285C253.696 283.446 253.696 283.554 253 282z"/>
<path style="fill:#847065; stroke:none;" d="M138 283L138 289C138.951 286.715 138.951 285.285 138 283z"/>
<path style="fill:#736775; stroke:none;" d="M253 285L253 288C253.696 286.446 253.696 286.554 253 285z"/>
<path style="fill:#bb8a41; stroke:none;" d="M254 288L254 291C254.696 289.446 254.696 289.554 254 288z"/>
<path style="fill:#b58643; stroke:none;" d="M138 289L138 297C139.161 294.23 139.161 291.77 138 289z"/>
<path style="fill:#746774; stroke:none;" d="M254.333 291.667C254.278 291.722 254.222 292.778 254.667 292.333C254.722 292.278 254.778 291.222 254.333 291.667z"/>
<path style="fill:#43538f; stroke:none;" d="M139 293L139 298C139.83 295.969 139.83 295.031 139 293z"/>
<path style="fill:#8d7763; stroke:none;" d="M255 296L255 299C255.696 297.446 255.696 297.554 255 296z"/>
<path style="fill:#6f6774; stroke:none;" d="M139 298L139 301C139.696 299.446 139.696 299.554 139 298z"/>
<path style="fill:#a7834d; stroke:none;" d="M139 301L139 308C140.059 305.466 140.059 303.534 139 301z"/>
<path style="fill:#857467; stroke:none;" d="M256 302L256 305C256.696 303.446 256.696 303.554 256 302z"/>
<path style="fill:#2a449f; stroke:none;" d="M140 306L140 309C140.696 307.446 140.696 307.554 140 306z"/>
<path style="fill:#7f6f69; stroke:none;" d="M257.333 308.667C257.278 308.722 257.222 309.778 257.667 309.333C257.722 309.278 257.778 308.222 257.333 308.667z"/>
<path style="fill:#837163; stroke:none;" d="M140 309L140 313C140.71 311.241 140.71 310.759 140 309z"/>
<path style="fill:#2040a5; stroke:none;" d="M257 310L257 315C257.83 312.969 257.83 312.03 257 310z"/>
<path style="fill:#ac8549; stroke:none;" d="M258 312L258 315C258.696 313.446 258.696 313.554 258 312z"/>
<path style="fill:#9e7f50; stroke:none;" d="M140 313L140 319C140.951 316.715 140.951 315.285 140 313z"/>
<path style="fill:#575883; stroke:none;" d="M258.333 315.667C258.278 315.722 258.222 316.778 258.667 316.333C258.722 316.278 258.778 315.222 258.333 315.667z"/>
<path style="fill:#1e40a5; stroke:none;" d="M258 317L258 321C258.71 319.241 258.71 318.759 258 317z"/>
<path style="fill:#4f5986; stroke:none;" d="M141 319L141 324C141.83 321.969 141.83 321.031 141 319z"/>
<path style="fill:#8e775d; stroke:none;" d="M259.333 319.667C259.278 319.722 259.222 320.778 259.667 320.333C259.722 320.278 259.778 319.222 259.333 319.667z"/>
<path style="fill:#4c5489; stroke:none;" d="M259.333 321.667C259.278 321.722 259.222 322.778 259.667 322.333C259.722 322.278 259.778 321.222 259.333 321.667z"/>
<path style="fill:#2b459e; stroke:none;" d="M259.333 323.667C259.278 323.722 259.222 324.778 259.667 324.333C259.722 324.278 259.778 323.222 259.333 323.667z"/>
<path style="fill:#867360; stroke:none;" d="M141 324L141 330C141.951 327.715 141.951 326.285 141 324z"/>
<path style="fill:#867560; stroke:none;" d="M260 325C265.222 327.191 272.368 326 278 326C272.778 323.809 265.632 325 260 325z"/>
<path style="fill:#9d8050; stroke:none;" d="M278 325C283.959 327.501 292.564 326 299 326C293.041 323.5 284.436 325 278 325z"/>
<path style="fill:#ae8a44; stroke:none;" d="M299 325C307.367 328.511 320.924 326 330 326C321.633 322.489 308.076 325 299 325z"/>
<path style="fill:#c79832; stroke:none;" d="M330 325C333.959 326.661 338.74 326 343 326L367 326C363.041 324.339 358.26 325 354 325L330 325z"/>
<path style="fill:#193ea8; stroke:none;" d="M260 326C265.222 328.191 272.368 327 278 327C272.778 324.809 265.632 326 260 326z"/>
<path style="fill:#2e489b; stroke:none;" d="M278 326C281.959 327.661 286.74 327 291 327L314 327C310.041 325.339 305.26 326 301 326L278 326z"/>
<path style="fill:#535b83; stroke:none;" d="M314 326C317.959 327.661 322.74 327 327 327L351 327C347.041 325.339 342.26 326 338 326L314 326z"/>
<path style="fill:#646476; stroke:none;" d="M351 326C355.724 327.982 361.91 327 367 327C362.276 325.018 356.09 326 351 326z"/>
<path style="fill:#727767; stroke:none;" d="M367 326C370.699 327.552 375.017 327 379 327L400 327C396.301 325.448 391.983 326 388 326L367 326z"/>
<path style="fill:#868458; stroke:none;" d="M400 326C403.163 327.327 406.586 327 410 327C406.837 325.673 403.414 326 400 326z"/>
<path style="fill:#a29644; stroke:none;" d="M410 326C413.959 327.661 418.74 327 423 327L446 327C442.041 325.339 437.26 326 433 326L410 326z"/>
<path style="fill:#b7a533; stroke:none;" d="M446 326C454.128 329.411 467.186 327 476 327C467.872 323.589 454.814 326 446 326z"/>
<path style="fill:#0d39af; stroke:none;" d="M359 327C363.215 328.769 368.464 328 373 328L402 328C397.785 326.231 392.535 327 388 327L359 327z"/>
<path style="fill:#2b4b9a; stroke:none;" d="M402 327C408.445 329.704 418.032 328 425 328C418.555 325.296 408.968 327 402 327z"/>
<path style="fill:#3c568d; stroke:none;" d="M425 327C428.959 328.661 433.74 328 438 328L461 328C457.041 326.339 452.26 327 448 327L425 327z"/>
<path style="fill:#50637f; stroke:none;" d="M461 327C467.202 329.603 476.298 328 483 328C476.798 325.397 467.702 327 461 327z"/>
<path style="fill:#67716e; stroke:none;" d="M483 327C490.888 330.31 503.449 328 512 328C504.112 324.69 491.551 327 483 327z"/>
<path style="fill:#797c61; stroke:none;" d="M512 327C514.613 328.098 517.164 327.993 520 328C517.387 326.902 514.836 327.007 512 327z"/>
<path style="fill:#8f8a56; stroke:none;" d="M520 327C525.469 329.295 533.099 328 539 328C533.531 325.705 525.901 327 520 327z"/>
<path style="fill:#9f9446; stroke:none;" d="M539 327C542.697 328.552 547.017 328 551 328C547.303 326.448 542.983 327 539 327z"/>
<path style="fill:#ae9e3a; stroke:none;" d="M551 327C556.959 329.5 565.564 328 572 328C566.041 325.5 557.436 327 551 327z"/>
<path style="fill:#0e3aae; stroke:none;" d="M483 328C490.888 331.31 503.449 329 512 329C504.112 325.69 491.551 328 483 328z"/>
<path style="fill:#304e98; stroke:none;" d="M512 328C515.959 329.661 520.74 329 525 329L551 329C547.041 327.339 542.26 328 538 328L512 328z"/>
<path style="fill:#3e558c; stroke:none;" d="M551 328C556.959 330.5 565.564 329 572 329C566.041 326.5 557.436 328 551 328z"/>
<path style="fill:#4f6082; stroke:none;" d="M572 328C575.697 329.552 580.017 329 584 329C580.303 327.448 575.983 328 572 328z"/>
<path style="fill:#797963; stroke:none;" d="M584 328C586.89 329.213 589.874 328.998 593 329C590.11 327.787 587.126 328.002 584 328z"/>
<path style="fill:#8e8853; stroke:none;" d="M593 328C598.469 330.295 606.099 329 612 329C606.531 326.705 598.901 328 593 328z"/>
<path style="fill:#294a9c; stroke:none;" d="M584 329C591.649 332.21 603.712 330 612 330C604.351 326.79 592.288 329 584 329z"/>
<path style="fill:#51667b; stroke:none;" d="M612 329C613.248 329.685 613.548 329.749 615 330C613.752 329.315 613.452 329.251 612 329z"/>
<path style="fill:#94904c; stroke:none;" d="M615 329L615 334C615.83 331.97 615.83 331.03 615 329z"/>
<path style="fill:#aa8647; stroke:none;" d="M141 330L141 338C142.161 335.23 142.161 332.77 141 330z"/>
<path style="fill:#26459f; stroke:none;" d="M142 332L142 335C142.696 333.446 142.696 333.554 142 332z"/>
<path style="fill:#747866; stroke:none;" d="M614 334L614 341C615.059 338.466 615.059 336.534 614 334z"/>
<path style="fill:#4b5689; stroke:none;" d="M142 335L142 338C142.696 336.446 142.696 336.554 142 335z"/>
<path style="fill:#123cab; stroke:none;" d="M612 336L613 341C613.779 339.231 613.912 337.964 614 336L612 336z"/>
<path style="fill:#807164; stroke:none;" d="M142 338L142 344C142.951 341.715 142.951 340.285 142 338z"/>
<path style="fill:#0033b7; stroke:none;" d="M611 339L611 351L613 351L613 339L611 339z"/>
<path style="fill:#41598a; stroke:none;" d="M613 341L613 349C614.161 346.23 614.161 343.77 613 341z"/>
<path style="fill:#ad9d3b; stroke:none;" d="M614 341L614 345C614.71 343.24 614.71 342.759 614 341z"/>
<path style="fill:#aa8748; stroke:none;" d="M142 344L142 351C143.059 348.466 143.059 346.534 142 344z"/>
<path style="fill:#2e489c; stroke:none;" d="M143 347L143 350C143.696 348.446 143.696 348.554 143 347z"/>
<path style="fill:#7b7e60; stroke:none;" d="M613 349L613 356C614.06 353.466 614.06 351.534 613 349z"/>
<path style="fill:#4f5986; stroke:none;" d="M143 350L143 353C143.696 351.446 143.696 351.554 143 350z"/>
<path style="fill:#2045a2; stroke:none;" d="M611 351L612 358C612.984 355.669 612.981 353.543 613 351L611 351z"/>
<path style="fill:#7c6e67; stroke:none;" d="M143 353L143 358C143.83 355.969 143.83 355.03 143 353z"/>
<path style="fill:#0533b6; stroke:none;" d="M610 355L610 368L612 368L612 355L610 355z"/>
<path style="fill:#bca730; stroke:none;" d="M613 356L613 366C614.346 362.793 614.346 359.207 613 356z"/>
<path style="fill:#987e54; stroke:none;" d="M143 358L143 365C144.059 362.466 144.059 360.534 143 358z"/>
<path style="fill:#4a5e83; stroke:none;" d="M612 358L612 368C613.346 364.793 613.346 361.207 612 358z"/>
<path style="fill:#505a84; stroke:none;" d="M144 363L144 367C144.71 365.24 144.71 364.76 144 363z"/>
<path style="fill:#70696e; stroke:none;" d="M144 367L144 372C144.83 369.97 144.83 369.03 144 367z"/>
<path style="fill:#2347a1; stroke:none;" d="M610 368C610.058 370.784 610.352 373.291 611 376C612.098 373.387 611.993 370.836 612 368L610 368z"/>
<path style="fill:#908a53; stroke:none;" d="M612 368L612 372C612.71 370.24 612.71 369.759 612 368z"/>
<path style="fill:#90795a; stroke:none;" d="M144 372L144 379C145.059 376.466 145.059 374.534 144 372z"/>
<path style="fill:#123cad; stroke:none;" d="M609 374L608 394C613.246 390.599 611 379.676 611 374L609 374z"/>
<path style="fill:#354b96; stroke:none;" d="M145 375L145 380C145.83 377.97 145.83 377.03 145 375z"/>
<path style="fill:#59657b; stroke:none;" d="M611 376L611 383C612.059 380.466 612.059 378.534 611 376z"/>
<path style="fill:#5e607b; stroke:none;" d="M145 380L145 387C146.059 384.466 146.059 382.534 145 380z"/>
<path style="fill:#888459; stroke:none;" d="M611 383L611 386C611.696 384.446 611.696 384.554 611 383z"/>
<path style="fill:#967c56; stroke:none;" d="M145 387L145 393C145.951 390.715 145.951 389.285 145 387z"/>
<path style="fill:#374d95; stroke:none;" d="M146 389L146 394C146.83 391.969 146.83 391.03 146 389z"/>
<path style="fill:#5b6877; stroke:none;" d="M610 393L610 396C610.696 394.446 610.696 394.554 610 393z"/>
<path style="fill:#545b83; stroke:none;" d="M146 394L146 402C147.161 399.23 147.161 396.77 146 394z"/>
<path style="fill:#2045a1; stroke:none;" d="M608 394C608.028 397.422 608.375 400.637 609 404C610.327 400.837 610 397.414 610 394L608 394z"/>
<path style="fill:#9a904c; stroke:none;" d="M610 396L610 400C610.71 398.24 610.71 397.76 610 396z"/>
<path style="fill:#1b3fa7; stroke:none;" d="M147 401L147 406C147.83 403.97 147.83 403.03 147 401z"/>
<path style="fill:#0333b7; stroke:none;" d="M607 401L607 405L609 405L609 401L607 401z"/>
<path style="fill:#8c775c; stroke:none;" d="M146 402L146 407C146.83 404.969 146.83 404.03 146 402z"/>
<path style="fill:#4b5d85; stroke:none;" d="M609 404L609 407C609.696 405.446 609.696 405.554 609 404z"/>
<path style="fill:#1d42a5; stroke:none;" d="M607 405C607 409.439 606.967 413.662 608 418C609.661 414.041 609 409.263 609 405L607 405z"/>
<path style="fill:#3d4f90; stroke:none;" d="M147 406L147 411C147.83 408.969 147.83 408.03 147 406z"/>
<path style="fill:#87845b; stroke:none;" d="M609 407L609 414C610.059 411.466 610.059 409.534 609 407z"/>
<path style="fill:#5a5d7e; stroke:none;" d="M147 411L147 416C147.83 413.969 147.83 413.03 147 411z"/>
<path style="fill:#857361; stroke:none;" d="M147 416L147 421C147.83 418.97 147.83 418.03 147 416z"/>
<path style="fill:#0033b7; stroke:none;" d="M606 416C606 455.051 598.004 493.958 598 533L600 533C600.806 493.957 608 455.088 608 416L606 416z"/>
<path style="fill:#374c94; stroke:none;" d="M148 418L148 426C149.161 423.23 149.161 420.77 148 418z"/>
<path style="fill:#686f71; stroke:none;" d="M608 418L608 422C608.71 420.24 608.71 419.76 608 418z"/>
<path style="fill:#0032b7; stroke:none;" d="M265 420C264.438 421.801 264.176 423.122 264 425C265.968 423.536 266.352 422.394 267 420L265 420z"/>
<path style="fill:#2142a2; stroke:none;" d="M267 420L267 422L300 422L300 420L267 420z"/>
<path style="fill:#0633b4; stroke:none;" d="M300 420L300 422L460 422L460 420L300 420z"/>
<path style="fill:#2045a2; stroke:none;" d="M460 420L460 422L483 422L483 420L460 420z"/>
<path style="fill:#0032b9; stroke:none;" d="M483 420C483.899 422.124 483.876 422.101 486 423C485.101 420.876 485.124 420.899 483 420z"/>
<path style="fill:#b08b42; stroke:none;" d="M147 421L147 425C147.71 423.24 147.71 422.76 147 421z"/>
<path style="fill:#606278; stroke:none;" d="M266 422C265.028 428.81 266 436.096 266 443C268.153 437.869 268.153 427.131 266 422z"/>
<path style="fill:#8e7a59; stroke:none;" d="M267 422C270.699 423.552 275.017 423 279 423L300 423C296.301 421.448 291.983 422 288 422L267 422z"/>
<path style="fill:#55647d; stroke:none;" d="M300 422C304.72 423.981 310.92 423 316 423L348 423L460 423C455.28 421.019 449.08 422 444 422L412 422L300 422z"/>
<path style="fill:#868656; stroke:none;" d="M460 422C466.202 424.603 475.298 423 482 423L482 431C483.213 428.11 482.998 425.126 483 422L460 422z"/>
<path style="fill:#2145a2; stroke:none;" d="M483 422L483 431C485.325 427.928 485.325 425.072 483 422z"/>
<path style="fill:#838059; stroke:none;" d="M608 422L608 425C608.696 423.446 608.696 423.554 608 422z"/>
<path style="fill:#c09337; stroke:none;" d="M267 423L267 443C269.087 438.027 269.087 427.973 267 423z"/>
<path style="fill:#d6a127; stroke:none;" d="M268 423L268 504L268 527C268 530.73 267.296 535.402 268.858 538.896C270.357 542.247 274.013 544.006 277.001 545.799L294 555.799C308.119 564.204 322.542 572.174 336.714 580.475C346.684 586.314 356.097 593.977 367 598L367 424L268 423z"/>
<path style="fill:#c89632; stroke:none;" d="M300 423C305.951 425.497 314.58 424 321 424L367 424C361.049 421.503 352.42 423 346 423L300 423z"/>
<path style="fill:#c6ad28; stroke:none;" d="M367 423C370.699 424.552 375.017 424 379 424L402 424L481 424L481 507L481 526C481.001 529.317 480.396 532.724 483 535C480.167 523.099 482 509.201 482 497L482 423L367 423z"/>
<path style="fill:#cdb422; stroke:none;" d="M367 424L367 541L367 577C367 584.281 367.695 591.88 366 599C378.646 598.343 392.19 586.545 403 580.424C429.282 565.543 455.25 550.028 482 536C479.167 524.099 481 510.201 481 498L481 424L367 424z"/>
<path style="fill:#b19e3a; stroke:none;" d="M608 425L608 432C609.059 429.466 609.059 427.534 608 425z"/>
<path style="fill:#696774; stroke:none;" d="M148 426L148 434C149.161 431.23 149.161 428.77 148 426z"/>
<path style="fill:#0033b7; stroke:none;" d="M264 427L264 505C264 512.998 264.091 521.002 263.996 529C263.947 533.127 262.984 536.979 264 541C266.477 537.73 266 534.001 266 530L266 510L266 427L264 427z"/>
<path style="fill:#123cad; stroke:none;" d="M484 430C481.386 438.842 483 449.805 483 459L483 516L485 516L485 457C485 448.993 487.105 437.4 484 430z"/>
<path style="fill:#72766a; stroke:none;" d="M482 431L482 517C484.395 511.293 483 503.154 483 497L483 453C483 446.314 484.599 437.194 482 431z"/>
<path style="fill:#3e578c; stroke:none;" d="M607 431L607 434C607.696 432.446 607.696 432.554 607 431z"/>
<path style="fill:#a88648; stroke:none;" d="M148 434L148 439C148.83 436.97 148.83 436.03 148 434z"/>
<path style="fill:#334b96; stroke:none;" d="M149 434L149 442C150.161 439.23 150.161 436.77 149 434z"/>
<path style="fill:#69716e; stroke:none;" d="M607 434L607 437C607.696 435.446 607.696 435.554 607 434z"/>
<path style="fill:#bba333; stroke:none;" d="M607 437L607 446C608.256 443.006 608.256 439.994 607 437z"/>
<path style="fill:#656476; stroke:none;" d="M149 442L149 447C149.83 444.97 149.83 444.03 149 442z"/>
<path style="fill:#45538c; stroke:none;" d="M266 443L266 503C267.875 498.531 267 492.809 267 488L267 459C267 453.92 267.981 447.72 266 443z"/>
<path style="fill:#af8944; stroke:none;" d="M267 443L267 503C268.875 498.531 268 492.809 268 488L268 459C268 453.92 268.981 447.72 267 443z"/>
<path style="fill:#41578c; stroke:none;" d="M606 445L606 448C606.696 446.446 606.696 446.554 606 445z"/>
<path style="fill:#987d54; stroke:none;" d="M149 447L149 452C149.83 449.969 149.83 449.03 149 447z"/>
<path style="fill:#394b93; stroke:none;" d="M150 448L150 459C152.066 455.55 151.989 451.947 152 448L150 448z"/>
<path style="fill:#888459; stroke:none;" d="M606 448L606 452C606.71 450.24 606.71 449.76 606 448z"/>
<path style="fill:#0f39ae; stroke:none;" d="M151 456L151 462L153 462L153 456L151 456z"/>
<path style="fill:#26489f; stroke:none;" d="M605 457L605 460C605.696 458.446 605.696 458.554 605 457z"/>
<path style="fill:#666576; stroke:none;" d="M150 459L150 462C150.696 460.446 150.696 460.554 150 459z"/>
<path style="fill:#54657e; stroke:none;" d="M605 460L605 463C605.696 461.446 605.696 461.554 605 460z"/>
<path style="fill:#a7864a; stroke:none;" d="M150 462L150 467C150.83 464.97 150.83 464.03 150 462z"/>
<path style="fill:#2d4899; stroke:none;" d="M151 462L151 472C153.124 468.891 152.989 465.696 153 462L151 462z"/>
<path style="fill:#998f4c; stroke:none;" d="M605 463L605 468C605.83 465.97 605.83 465.03 605 463z"/>
<path style="fill:#495e84; stroke:none;" d="M605 468L605 471C605.696 469.446 605.696 469.554 605 468z"/>
<path style="fill:#183ca8; stroke:none;" d="M152 470L152 487C154.97 482.043 154 475.603 154 470L152 470z"/>
<path style="fill:#2d4a9a; stroke:none;" d="M604 471L604 474C604.696 472.446 604.696 472.554 604 471z"/>
<path style="fill:#4f5886; stroke:none;" d="M151 472L151 475C151.696 473.446 151.696 473.554 151 472z"/>
<path style="fill:#5a697c; stroke:none;" d="M604.333 474.667C604.278 474.722 604.222 475.778 604.667 475.333C604.722 475.278 604.778 474.222 604.333 474.667z"/>
<path style="fill:#8d775c; stroke:none;" d="M151 475L151 480C151.83 477.969 151.83 477.03 151 475z"/>
<path style="fill:#8d8955; stroke:none;" d="M604 476L604 480C604.71 478.24 604.71 477.759 604 476z"/>
<path style="fill:#b78d3f; stroke:none;" d="M151 480L151 484C151.71 482.24 151.71 481.759 151 480z"/>
<path style="fill:#bea72f; stroke:none;" d="M604 480L604 490C605.346 486.793 605.346 483.207 604 480z"/>
<path style="fill:#0936b1; stroke:none;" d="M153 484L153 494L155 494L155 484L153 484z"/>
<path style="fill:#395292; stroke:none;" d="M603 485L603 488C603.696 486.446 603.696 486.554 603 485z"/>
<path style="fill:#6e6872; stroke:none;" d="M152 487L152 492C152.83 489.969 152.83 489.031 152 487z"/>
<path style="fill:#656e72; stroke:none;" d="M603.333 488.667C603.278 488.722 603.222 489.778 603.667 489.333C603.722 489.278 603.778 488.222 603.333 488.667z"/>
<path style="fill:#9f9147; stroke:none;" d="M603 490L603 495C603.83 492.97 603.83 492.03 603 490z"/>
<path style="fill:#aa8648; stroke:none;" d="M152 492L152 497C152.83 494.969 152.83 494.031 152 492z"/>
<path style="fill:#213fa2; stroke:none;" d="M153 494L153 502C154.378 499.412 154.761 496.92 155 494L153 494z"/>
<path style="fill:#2a4a9b; stroke:none;" d="M602 497L602 500C602.696 498.446 602.696 498.554 602 497z"/>
<path style="fill:#0835b3; stroke:none;" d="M154 498L154 509L156 509L156 498L154 498z"/>
<path style="fill:#6e746b; stroke:none;" d="M602 500L602 504C602.71 502.24 602.71 501.76 602 500z"/>
<path style="fill:#776b6c; stroke:none;" d="M153 502L153 507C153.83 504.969 153.83 504.03 153 502z"/>
<path style="fill:#6a6672; stroke:none;" d="M266 503L266 540C269.004 532.841 267 521.744 267 514C267 510.298 267.441 506.435 266 503z"/>
<path style="fill:#c49634; stroke:none;" d="M267 503L267 530C267 534.206 266.171 538.518 270 541C264.953 529.089 271.854 514.569 267 503z"/>
<path style="fill:#988c4c; stroke:none;" d="M602 504L602 509C602.83 506.97 602.83 506.03 602 504z"/>
<path style="fill:#c49436; stroke:none;" d="M153 507L153 515C154.161 512.23 154.161 509.77 153 507z"/>
<path style="fill:#1b3fa5; stroke:none;" d="M154 509L154 515C155.416 512.958 155.745 511.489 156 509L154 509z"/>
<path style="fill:#28499d; stroke:none;" d="M601 510L601 513C601.696 511.446 601.696 511.554 601 510z"/>
<path style="fill:#0333b7; stroke:none;" d="M155 513L155 523L157 523L157 513L155 513z"/>
<path style="fill:#69716e; stroke:none;" d="M601 513L601 518C601.83 515.97 601.83 515.03 601 513z"/>
<path style="fill:#4b5689; stroke:none;" d="M154.333 515.667C154.278 515.722 154.222 516.778 154.667 516.333C154.722 516.278 154.778 515.222 154.333 515.667z"/>
<path style="fill:#1e45a2; stroke:none;" d="M483 516L483 533L485 533L485 516L483 516z"/>
<path style="fill:#6b6674; stroke:none;" d="M154 517L154 520C154.696 518.446 154.696 518.554 154 517z"/>
<path style="fill:#928b52; stroke:none;" d="M482 517C482 521.767 480.214 530.692 484 534C482.687 528.484 484.161 522.15 482 517z"/>
<path style="fill:#958c4e; stroke:none;" d="M601 518L601 523C601.83 520.97 601.83 520.03 601 518z"/>
<path style="fill:#ad8746; stroke:none;" d="M154 520L154 524C154.71 522.24 154.71 521.76 154 520z"/>
<path style="fill:#2241a5; stroke:none;" d="M155 523L155 528L157 528L157 523L155 523z"/>
<path style="fill:#5d6a76; stroke:none;" d="M600 526L600 530C600.71 528.24 600.71 527.76 600 526z"/>
<path style="fill:#47558b; stroke:none;" d="M155 528L155 531C155.696 529.446 155.696 529.554 155 528z"/>
<path style="fill:#0333b7; stroke:none;" d="M156 528L156 540L158 540L158 528L156 528z"/>
<path style="fill:#84825b; stroke:none;" d="M600 530L600 537C601.059 534.466 601.06 532.534 600 530z"/>
<path style="fill:#716971; stroke:none;" d="M155 531L155 534C155.696 532.446 155.696 532.554 155 531z"/>
<path style="fill:#123dac; stroke:none;" d="M598 533L599 540C599.984 537.669 599.981 535.543 600 533L598 533z"/>
<path style="fill:#ad8945; stroke:none;" d="M155 534L155 539C155.83 536.969 155.83 536.031 155 534z"/>
<path style="fill:#a09541; stroke:none;" d="M478.667 537.333C478.222 537.778 479.278 537.722 479.333 537.667C479.778 537.222 478.722 537.278 478.667 537.333z"/>
<path style="fill:#0033b7; stroke:none;" d="M597 537L597 546L599 546L599 537L597 537z"/>
<path style="fill:#5d6a76; stroke:none;" d="M469 542C472.971 544.101 476.496 541.14 480 539C476.205 537.989 472.579 540.682 469 542z"/>
<path style="fill:#1b3fa7; stroke:none;" d="M156 540L156 542L158 542L158 540L156 540z"/>
<path style="fill:#123ba8; stroke:none;" d="M265 540C269.159 545.02 275.411 547.788 281 551C289.413 555.835 297.527 561.185 306 565.908C310.933 568.658 316.258 573.008 322 573C315.455 566.25 305.099 562.279 297 557.576C286.996 551.767 276.392 542.607 265 540z"/>
<path style="fill:#938d4d; stroke:none;" d="M473 540L474 541L473 540z"/>
<path style="fill:#606c73; stroke:none;" d="M599 540L599 544C599.71 542.24 599.71 541.76 599 540z"/>
<path style="fill:#5b6079; stroke:none;" d="M269 541L270 542L269 541z"/>
<path style="fill:#3e5090; stroke:none;" d="M156.333 542.667C156.278 542.722 156.222 543.778 156.667 543.333C156.722 543.278 156.778 542.222 156.333 542.667z"/>
<path style="fill:#0033b7; stroke:none;" d="M157 542L157 553L159 553L159 542L157 542z"/>
<path style="fill:#696772; stroke:none;" d="M271 542L272 543L271 542z"/>
<path style="fill:#796f67; stroke:none;" d="M273 543L274 544L273 543z"/>
<path style="fill:#938d4e; stroke:none;" d="M467 543L468 544L467 543z"/>
<path style="fill:#5d6b76; stroke:none;" d="M468 543L469 544L468 543z"/>
<path style="fill:#143da9; stroke:none;" d="M458 551C462.907 549.587 468.263 547.475 471 543C466.175 544.26 460.518 546.573 458 551z"/>
<path style="fill:#796d6a; stroke:none;" d="M156 544L156 548C156.71 546.24 156.71 545.76 156 544z"/>
<path style="fill:#7f805d; stroke:none;" d="M599 544L599 551C600.059 548.466 600.06 546.534 599 544z"/>
<path style="fill:#606277; stroke:none;" d="M276 545L277 546L276 545z"/>
<path style="fill:#3d578c; stroke:none;" d="M464.667 545.333C464.222 545.778 465.278 545.722 465.333 545.667C465.778 545.222 464.722 545.278 464.667 545.333z"/>
<path style="fill:#756e6a; stroke:none;" d="M278 546L279 547L278 546z"/>
<path style="fill:#7a7d60; stroke:none;" d="M462 546L463 547L462 546z"/>
<path style="fill:#143cab; stroke:none;" d="M597 546L597 550L599 550L599 546L597 546z"/>
<path style="fill:#858458; stroke:none;" d="M460 547L461 548L460 547z"/>
<path style="fill:#b48d40; stroke:none;" d="M156 548L156 554C156.951 551.715 156.951 550.285 156 548z"/>
<path style="fill:#908b50; stroke:none;" d="M458 548L459 549L458 548z"/>
<path style="fill:#636476; stroke:none;" d="M283 549L284 550L283 549z"/>
<path style="fill:#5d6c75; stroke:none;" d="M457 549L458 550L457 549z"/>
<path style="fill:#85755e; stroke:none;" d="M285 550L286 551L285 550z"/>
<path style="fill:#7b7d5f; stroke:none;" d="M455 550L456 551L455 550z"/>
<path style="fill:#0937b2; stroke:none;" d="M364 598C369.29 608.08 380.614 597.363 387 593.305C402.118 583.698 418.126 574.581 434 566.255C441.223 562.467 453.946 557.196 458 550C450.873 552.256 444.557 557.136 438 560.691C422.889 568.884 407.762 577.396 393 586.201C384.609 591.205 374.039 600.891 364 598z"/>
<path style="fill:#0033b7; stroke:none;" d="M596 550L595 573L597 573L598 550L596 550z"/>
<path style="fill:#425889; stroke:none;" d="M598 550L598 555C598.83 552.97 598.83 552.03 598 550z"/>
<path style="fill:#898754; stroke:none;" d="M453 551L454 552L453 551z"/>
<path style="fill:#aa9b3c; stroke:none;" d="M599 551L599 558C600.059 555.466 600.059 553.534 599 551z"/>
<path style="fill:#686673; stroke:none;" d="M288 552L289 553L288 552z"/>
<path style="fill:#52667d; stroke:none;" d="M452 552L453 553L452 552z"/>
<path style="fill:#183ca8; stroke:none;" d="M157 553L158 557C158.683 555.494 158.826 554.685 159 553L157 553z"/>
<path style="fill:#83755f; stroke:none;" d="M290 553L291 554L290 553z"/>
<path style="fill:#6b746b; stroke:none;" d="M450 553L451 554L450 553z"/>
<path style="fill:#41528c; stroke:none;" d="M291 554L292 555L291 554z"/>
<path style="fill:#83825a; stroke:none;" d="M448 554L449 555L448 554z"/>
<path style="fill:#5e6179; stroke:none;" d="M293 555L294 556L293 555z"/>
<path style="fill:#908b50; stroke:none;" d="M446 555L447 556L446 555z"/>
<path style="fill:#435a89; stroke:none;" d="M447 555L448 556L447 555z"/>
<path style="fill:#717867; stroke:none;" d="M598 555L598 562C599.059 559.466 599.059 557.534 598 555z"/>
<path style="fill:#384e94; stroke:none;" d="M157 556L157 559C157.696 557.446 157.696 557.554 157 556z"/>
<path style="fill:#7f7263; stroke:none;" d="M295 556L296 557L295 556z"/>
<path style="fill:#5f6d74; stroke:none;" d="M445 556L446 557L445 556z"/>
<path style="fill:#0333b7; stroke:none;" d="M158 557L158 569L160 569L160 557L158 557z"/>
<path style="fill:#475589; stroke:none;" d="M296 557L297 558L296 557z"/>
<path style="fill:#737865; stroke:none;" d="M443 557L444 558L443 557z"/>
<path style="fill:#575e7d; stroke:none;" d="M298 558L299 559L298 558z"/>
<path style="fill:#7f805d; stroke:none;" d="M441 558L442 559L441 558z"/>
<path style="fill:#636377; stroke:none;" d="M157 559L157 562C157.696 560.446 157.696 560.554 157 559z"/>
<path style="fill:#6a6871; stroke:none;" d="M300 559L301 560L300 559z"/>
<path style="fill:#8b8854; stroke:none;" d="M439 559L440 560L439 559z"/>
<path style="fill:#50637e; stroke:none;" d="M440 559L441 560L440 559z"/>
<path style="fill:#b28d40; stroke:none;" d="M302.667 560.333C302.222 560.778 303.278 560.722 303.333 560.667C303.778 560.222 302.722 560.278 302.667 560.333z"/>
<path style="fill:#958e4d; stroke:none;" d="M437 560L438 561L437 560z"/>
<path style="fill:#5b6a77; stroke:none;" d="M438 560L439 561L438 560z"/>
<path style="fill:#585e7d; stroke:none;" d="M303 561L304 562L303 561z"/>
<path style="fill:#6f7668; stroke:none;" d="M436 561L437 562L436 561z"/>
<path style="fill:#9e8150; stroke:none;" d="M157 562L157 567C157.83 564.969 157.83 564.031 157 562z"/>
<path style="fill:#666673; stroke:none;" d="M305 562L306 563L305 562z"/>
<path style="fill:#7d805d; stroke:none;" d="M434 562L435 563L434 562z"/>
<path style="fill:#a09445; stroke:none;" d="M598 562L598 566C598.71 564.24 598.71 563.76 598 562z"/>
<path style="fill:#756d69; stroke:none;" d="M307 563L308 564L307 563z"/>
<path style="fill:#868557; stroke:none;" d="M432 563L433 564L432 563z"/>
<path style="fill:#475688; stroke:none;" d="M308 564L309 565L308 564z"/>
<path style="fill:#837460; stroke:none;" d="M309 564L310 565L309 564z"/>
<path style="fill:#98904b; stroke:none;" d="M430 564L431 565L430 564z"/>
<path style="fill:#64706f; stroke:none;" d="M429 565L430 566L429 565z"/>
<path style="fill:#6c6970; stroke:none;" d="M312 566L313 567L312 566z"/>
<path style="fill:#7a7d60; stroke:none;" d="M427 566L428 567L427 566z"/>
<path style="fill:#596879; stroke:none;" d="M597 566L597 573C598.059 570.466 598.059 568.534 597 566z"/>
<path style="fill:#b68d3f; stroke:none;" d="M157 567L157 571C157.71 569.24 157.71 568.76 157 567z"/>
<path style="fill:#817361; stroke:none;" d="M314 567L315 568L314 567z"/>
<path style="fill:#868558; stroke:none;" d="M425 567L426 568L425 567z"/>
<path style="fill:#1e3fa5; stroke:none;" d="M158 569L158 571L160 571L160 569L158 569z"/>
<path style="fill:#5e617a; stroke:none;" d="M317 569L318 570L317 569z"/>
<path style="fill:#67726d; stroke:none;" d="M422 569L423 570L422 569z"/>
<path style="fill:#796f67; stroke:none;" d="M319 570L320 571L319 570z"/>
<path style="fill:#7d7f5e; stroke:none;" d="M420 570L421 571L420 570z"/>
<path style="fill:#45538b; stroke:none;" d="M158 571L158 574C158.696 572.446 158.696 572.554 158 571z"/>
<path style="fill:#0033b7; stroke:none;" d="M159 571L159 580L161 580L161 571L159 571z"/>
<path style="fill:#958d4c; stroke:none;" d="M418 571L419 572L418 571z"/>
<path style="fill:#4b6082; stroke:none;" d="M419 571L420 572L419 571z"/>
<path style="fill:#656574; stroke:none;" d="M322 572L323 573L322 572z"/>
<path style="fill:#5f6c74; stroke:none;" d="M417 572L418 573L417 572z"/>
<path style="fill:#0937b6; stroke:none;" d="M321 573C323.284 576.498 327.265 578.256 331 580C328.859 575.869 325.471 574.026 321 573z"/>
<path style="fill:#827461; stroke:none;" d="M324 573L325 574L324 573z"/>
<path style="fill:#7a7d61; stroke:none;" d="M415 573L416 574L415 573z"/>
<path style="fill:#143eaa; stroke:none;" d="M595 573L596 580C596.984 577.669 596.981 575.543 597 573L595 573z"/>
<path style="fill:#8a8655; stroke:none;" d="M597 573L597 580C598.059 577.466 598.059 575.534 597 573z"/>
<path style="fill:#817362; stroke:none;" d="M158 574L158 579C158.83 576.969 158.83 576.03 158 574z"/>
<path style="fill:#4f5a83; stroke:none;" d="M325 574L326 575L325 574z"/>
<path style="fill:#888555; stroke:none;" d="M413 574L414 575L413 574z"/>
<path style="fill:#686773; stroke:none;" d="M327 575L328 576L327 575z"/>
<path style="fill:#958d4c; stroke:none;" d="M411 575L412 576L411 575z"/>
<path style="fill:#4b5d83; stroke:none;" d="M412 575L413 576L412 575z"/>
<path style="fill:#7a7065; stroke:none;" d="M329 576L330 577L329 576z"/>
<path style="fill:#636f72; stroke:none;" d="M410 576L411 577L410 576z"/>
<path style="fill:#495786; stroke:none;" d="M330 577L331 578L330 577z"/>
<path style="fill:#777c63; stroke:none;" d="M408 577L409 578L408 577z"/>
<path style="fill:#0033b7; stroke:none;" d="M594 577L594 586L596 586L596 577L594 577z"/>
<path style="fill:#2142a2; stroke:none;" d="M331 578C333.761 583.034 339.853 585.782 345 588C342.284 582.759 336.284 580.212 331 578z"/>
<path style="fill:#666674; stroke:none;" d="M332 578L333 579L332 578z"/>
<path style="fill:#83825a; stroke:none;" d="M406 578L407 579L406 578z"/>
<path style="fill:#aa8847; stroke:none;" d="M158 579L158 585C158.951 582.715 158.951 581.285 158 579z"/>
<path style="fill:#ae8a43; stroke:none;" d="M334.667 579.333C334.222 579.778 335.278 579.722 335.333 579.667C335.778 579.222 334.722 579.278 334.667 579.333z"/>
<path style="fill:#8f8a50; stroke:none;" d="M404 579L405 580L404 579z"/>
<path style="fill:#51627f; stroke:none;" d="M405 579L406 580L405 579z"/>
<path style="fill:#173da9; stroke:none;" d="M159 580L159 584L161 584L161 580L159 580z"/>
<path style="fill:#b68f3d; stroke:none;" d="M336.667 580.333C336.222 580.778 337.278 580.722 337.333 580.667C337.778 580.222 336.722 580.278 336.667 580.333z"/>
<path style="fill:#958e4c; stroke:none;" d="M402 580L403 581L402 580z"/>
<path style="fill:#5f6c73; stroke:none;" d="M403 580L404 581L403 580z"/>
<path style="fill:#56667b; stroke:none;" d="M596 580L596 588C597.161 585.23 597.161 582.77 596 580z"/>
<path style="fill:#6b736c; stroke:none;" d="M401 581L402 582L401 581z"/>
<path style="fill:#736c6b; stroke:none;" d="M339 582L340 583L339 582z"/>
<path style="fill:#81815b; stroke:none;" d="M399 582L400 583L399 582z"/>
<path style="fill:#b78f3c; stroke:none;" d="M341.667 583.333C341.222 583.778 342.278 583.722 342.333 583.667C342.778 583.222 341.722 583.278 341.667 583.333z"/>
<path style="fill:#8b8754; stroke:none;" d="M397 583L398 584L397 583z"/>
<path style="fill:#4c5885; stroke:none;" d="M159 584L159 588C159.71 586.24 159.71 585.76 159 584z"/>
<path style="fill:#0033b7; stroke:none;" d="M160 584L160 596L162 596L162 584L160 584z"/>
<path style="fill:#968e4b; stroke:none;" d="M395 584L396 585L395 584z"/>
<path style="fill:#636675; stroke:none;" d="M344 585L345 586L344 585z"/>
<path style="fill:#69726c; stroke:none;" d="M394 585L395 586L394 585z"/>
<path style="fill:#41518c; stroke:none;" d="M345 586C347.343 590.159 351.704 592.149 356 594C353.657 589.841 349.296 587.851 345 586z"/>
<path style="fill:#796d66; stroke:none;" d="M346 586L347 587L346 586z"/>
<path style="fill:#797c62; stroke:none;" d="M392 586L393 587L392 586z"/>
<path style="fill:#113bad; stroke:none;" d="M594 586L595 593C595.985 590.669 595.981 588.543 596 586L594 586z"/>
<path style="fill:#908b4f; stroke:none;" d="M390 587L391 588L390 587z"/>
<path style="fill:#817063; stroke:none;" d="M159 588L159 595C160.059 592.466 160.059 590.534 159 588z"/>
<path style="fill:#58677b; stroke:none;" d="M389 588L390 589L389 588z"/>
<path style="fill:#8f8a51; stroke:none;" d="M596 588L596 593C596.83 590.97 596.83 590.03 596 588z"/>
<path style="fill:#7b7066; stroke:none;" d="M351 589L352 590L351 589z"/>
<path style="fill:#707668; stroke:none;" d="M387 589L388 590L387 589z"/>
<path style="fill:#80805f; stroke:none;" d="M385 590L386 591L385 590z"/>
<path style="fill:#0033b7; stroke:none;" d="M593 590L592 609L594 609C594.504 602.612 595 596.431 595 590L593 590z"/>
<path style="fill:#978f4c; stroke:none;" d="M383 591L384 592L383 591z"/>
<path style="fill:#455c87; stroke:none;" d="M384 591L385 592L384 591z"/>
<path style="fill:#786d69; stroke:none;" d="M356 592L357 593L356 592z"/>
<path style="fill:#5d6b76; stroke:none;" d="M382 592L383 593L382 592z"/>
<path style="fill:#173ba8; stroke:none;" d="M356 593C357.155 595.133 357.882 595.782 360 597C358.846 594.751 358.249 594.154 356 593z"/>
<path style="fill:#777a63; stroke:none;" d="M380 593L381 594L380 593z"/>
<path style="fill:#51647f; stroke:none;" d="M595 593L595 602C596.256 599.006 596.256 595.994 595 593z"/>
<path style="fill:#5d607a; stroke:none;" d="M359 594L360 595L359 594z"/>
<path style="fill:#8b8755; stroke:none;" d="M378 594L379 595L378 594z"/>
<path style="fill:#42518d; stroke:none;" d="M360 595C361.155 597.133 361.882 597.782 364 599C362.845 596.867 362.118 596.218 360 595z"/>
<path style="fill:#807264; stroke:none;" d="M361 595L362 596L361 595z"/>
<path style="fill:#968f4d; stroke:none;" d="M376 595L377 596L376 595z"/>
<path style="fill:#4f6380; stroke:none;" d="M377 595L378 596L377 595z"/>
<path style="fill:#1b3fa5; stroke:none;" d="M160 596L160 599L162 599L162 596L160 596z"/>
<path style="fill:#616c74; stroke:none;" d="M375 596L376 597L375 596z"/>
<path style="fill:#aa8846; stroke:none;" d="M364.667 597.333C364.222 597.778 365.278 597.722 365.333 597.667C365.778 597.222 364.722 597.278 364.667 597.333z"/>
<path style="fill:#737865; stroke:none;" d="M373 597L374 598L373 597z"/>
<path style="fill:#8b8756; stroke:none;" d="M371 598L372 599L371 598z"/>
<path style="fill:#445b89; stroke:none;" d="M372 598L373 599L372 598z"/>
<path style="fill:#3b4f91; stroke:none;" d="M160 599L160 602C160.696 600.446 160.696 600.554 160 599z"/>
<path style="fill:#0033b7; stroke:none;" d="M161 599L161 611L163 611L163 599L161 599z"/>
<path style="fill:#8a8755; stroke:none;" d="M367 599C368.506 599.683 369.315 599.826 371 600C369.494 599.317 368.685 599.174 367 599z"/>
<path style="fill:#756d69; stroke:none;" d="M160 602L160 606C160.71 604.24 160.71 603.76 160 602z"/>
<path style="fill:#7e805e; stroke:none;" d="M595 602L595 605C595.696 603.446 595.696 603.554 595 602z"/>
<path style="fill:#365391; stroke:none;" d="M594.333 604.667C594.278 604.722 594.222 605.778 594.667 605.333C594.722 605.278 594.778 604.222 594.333 604.667z"/>
<path style="fill:#977d54; stroke:none;" d="M160 606L160 613C161.059 610.466 161.059 608.534 160 606z"/>
<path style="fill:#596b76; stroke:none;" d="M594 606L594 609C594.696 607.446 594.696 607.554 594 606z"/>
<path style="fill:#1841a7; stroke:none;" d="M592 609C591.799 611.419 591.728 613.591 592 616C593.221 613.717 593.652 611.572 594 609L592 609z"/>
<path style="fill:#93904c; stroke:none;" d="M594.333 609.667C594.278 609.722 594.222 610.778 594.667 610.333C594.722 610.278 594.778 609.222 594.333 609.667z"/>
<path style="fill:#193da7; stroke:none;" d="M161 611L161 616C162.062 614.307 162.52 612.96 163 611L161 611z"/>
<path style="fill:#717966; stroke:none;" d="M593 612L593 615C593.696 613.446 593.696 613.554 593 612z"/>
<path style="fill:#0032b8; stroke:none;" d="M162 613C162 617.603 160.676 624.698 163.028 628.815C164.874 632.046 168.952 633.624 172 635.449C179.609 640.005 187.301 644.431 195 648.85C222.955 664.897 250.591 681.555 278.83 697.106C289.548 703.008 300.169 711.592 312 715C309.643 710.359 305.41 708.124 301 705.579C294.051 701.57 286.962 697.83 280 693.85C253.241 678.549 226.747 662.761 200 647.427C191.445 642.523 182.219 638.415 174 632.995C170.751 630.853 166.866 628.566 165.028 624.985C163.254 621.531 164 616.765 164 613L162 613z"/>
<path style="fill:#0232b7; stroke:none;" d="M587 619C589.997 617.912 591.052 617.05 592 614C589.313 615.324 588.324 616.313 587 619z"/>
<path style="fill:#6c6971; stroke:none;" d="M161 616L161 623C162.059 620.466 162.059 618.534 161 616z"/>
<path style="fill:#81865a; stroke:none;" d="M592 616L593 617L592 616z"/>
<path style="fill:#868855; stroke:none;" d="M591 617L592 618L591 617z"/>
<path style="fill:#123dab; stroke:none;" d="M580 623C583.322 622.005 585.275 621.034 587 618C583.678 618.995 581.725 619.966 580 623z"/>
<path style="fill:#5e6c75; stroke:none;" d="M589 618L590 619L589 618z"/>
<path style="fill:#5b6b76; stroke:none;" d="M587 619L588 620L587 619z"/>
<path style="fill:#0033b8; stroke:none;" d="M579 621C533.28 651.278 483.51 675.232 437 704.228C423.19 712.838 408.605 720.247 395 729.169C389.489 732.783 383.679 735.697 378 739.012C375.276 740.602 372.21 743.165 369 743.588C364.436 744.189 358.785 739.563 355 737.424C345.287 731.936 335.698 726.235 326 720.719C321.292 718.041 316.567 714.347 311 715C321.977 723.938 336.766 730.158 349 737.397C354.884 740.878 361.227 743.027 365 749C371.905 747.007 377.85 742.623 384 739.011C394.649 732.755 405.27 726.395 416 720.281C454.244 698.491 492.318 676.129 530 653.399C542.594 645.802 555.387 638.568 568 631C571.446 628.932 580.096 625.784 579 621z"/>
<path style="fill:#777b62; stroke:none;" d="M584 621L585 622L584 621z"/>
<path style="fill:#68736c; stroke:none;" d="M582 622L583 623L582 622z"/>
<path style="fill:#495887; stroke:none;" d="M161 623L161 626C161.696 624.446 161.696 624.554 161 623z"/>
<path style="fill:#5a6a77; stroke:none;" d="M580 623L581 624L580 623z"/>
<path style="fill:#425b88; stroke:none;" d="M578 624L579 625L578 624z"/>
<path style="fill:#6d7569; stroke:none;" d="M577 625L578 626L577 625z"/>
<path style="fill:#8c7b58; stroke:none;" d="M161 626L161 629C161.696 627.446 161.696 627.554 161 626z"/>
<path style="fill:#616e72; stroke:none;" d="M575 626L576 627L575 626z"/>
<path style="fill:#4e6280; stroke:none;" d="M573 627L574 628L573 627z"/>
<path style="fill:#807461; stroke:none;" d="M162 629L163 630L162 629z"/>
<path style="fill:#636f72; stroke:none;" d="M570 629L571 630L570 629z"/>
<path style="fill:#8f7d56; stroke:none;" d="M163 630L164 631L163 630z"/>
<path style="fill:#4e6280; stroke:none;" d="M568 630L569 631L568 630z"/>
<path style="fill:#5a6079; stroke:none;" d="M165 631L166 632L165 631z"/>
<path style="fill:#807462; stroke:none;" d="M166 632L167 633L166 632z"/>
<path style="fill:#6e7668; stroke:none;" d="M565 632L566 633L565 632z"/>
<path style="fill:#957b56; stroke:none;" d="M168 633L169 634L168 633z"/>
<path style="fill:#56687a; stroke:none;" d="M563 633L564 634L563 633z"/>
<path style="fill:#796f67; stroke:none;" d="M170 634L171 635L170 634z"/>
<path style="fill:#595f7f; stroke:none;" d="M172 635L173 636L172 635z"/>
<path style="fill:#6d746a; stroke:none;" d="M560 635L561 636L560 635z"/>
<path style="fill:#988154; stroke:none;" d="M173 636L174 637L173 636z"/>
<path style="fill:#5a6a78; stroke:none;" d="M558 636L559 637L558 636z"/>
<path style="fill:#6d6672; stroke:none;" d="M175 637L176 638L175 637z"/>
<path style="fill:#777c62; stroke:none;" d="M555 638L556 639L555 638z"/>
<path style="fill:#847363; stroke:none;" d="M178 639L179 640L178 639z"/>
<path style="fill:#66716f; stroke:none;" d="M553 639L554 640L553 639z"/>
<path style="fill:#30489b; stroke:none;" d="M180.667 640.333C180.222 640.778 181.278 640.722 181.333 640.667C181.778 640.222 180.722 640.278 180.667 640.333z"/>
<path style="fill:#2644a0; stroke:none;" d="M182.667 641.333C182.222 641.778 183.278 641.722 183.333 641.667C183.778 641.222 182.722 641.278 182.667 641.333z"/>
<path style="fill:#3f598a; stroke:none;" d="M549 641L550 642L549 641z"/>
<path style="fill:#7a7d60; stroke:none;" d="M550 641L551 642L550 641z"/>
<path style="fill:#8d785c; stroke:none;" d="M183 642L184 643L183 642z"/>
<path style="fill:#6e7667; stroke:none;" d="M548 642L549 643L548 642z"/>
<path style="fill:#7f7067; stroke:none;" d="M185 643L186 644L185 643z"/>
<path style="fill:#5c6b75; stroke:none;" d="M546 643L547 644L546 643z"/>
<path style="fill:#756a6c; stroke:none;" d="M187 644L188 645L187 644z"/>
<path style="fill:#4a5f83; stroke:none;" d="M544 644L545 645L544 644z"/>
<path style="fill:#977c55; stroke:none;" d="M188 645L189 646L188 645z"/>
<path style="fill:#5d5f7c; stroke:none;" d="M189 645L190 646L189 645z"/>
<path style="fill:#8d765d; stroke:none;" d="M190 646L191 647L190 646z"/>
<path style="fill:#66716e; stroke:none;" d="M541 646L542 647L541 646z"/>
<path style="fill:#7a6d6c; stroke:none;" d="M192 647L193 648L192 647z"/>
<path style="fill:#54657c; stroke:none;" d="M539 647L540 648L539 647z"/>
<path style="fill:#615f7d; stroke:none;" d="M194 648L195 649L194 648z"/>
<path style="fill:#40588b; stroke:none;" d="M537 648L538 649L537 648z"/>
<path style="fill:#9b7954; stroke:none;" d="M195 649L196 650L195 649z"/>
<path style="fill:#46528e; stroke:none;" d="M196 649L197 650L196 649z"/>
<path style="fill:#6f7769; stroke:none;" d="M536 649L537 650L536 649z"/>
<path style="fill:#7f6e69; stroke:none;" d="M197 650L198 651L197 650z"/>
<path style="fill:#4f6280; stroke:none;" d="M534 650L535 651L534 650z"/>
<path style="fill:#6c6576; stroke:none;" d="M199 651L200 652L199 651z"/>
<path style="fill:#4c558b; stroke:none;" d="M201 652L202 653L201 652z"/>
<path style="fill:#737867; stroke:none;" d="M531 652L532 653L531 652z"/>
<path style="fill:#8c715e; stroke:none;" d="M202 653L203 654L202 653z"/>
<path style="fill:#55667b; stroke:none;" d="M529 653L530 654L529 653z"/>
<path style="fill:#746a6f; stroke:none;" d="M204 654L205 655L204 654z"/>
<path style="fill:#5c5d80; stroke:none;" d="M206 655L207 656L206 655z"/>
<path style="fill:#777c62; stroke:none;" d="M526 655L527 656L526 655z"/>
<path style="fill:#91785d; stroke:none;" d="M207 656L208 657L207 656z"/>
<path style="fill:#5a6976; stroke:none;" d="M524 656L525 657L524 656z"/>
<path style="fill:#7d6d67; stroke:none;" d="M209 657L210 658L209 657z"/>
<path style="fill:#686377; stroke:none;" d="M211 658L212 659L211 658z"/>
<path style="fill:#787c61; stroke:none;" d="M521 658L522 659L521 658z"/>
<path style="fill:#2744a1; stroke:none;" d="M213.667 659.333C213.222 659.778 214.278 659.722 214.333 659.667C214.778 659.222 213.722 659.278 213.667 659.333z"/>
<path style="fill:#656f6f; stroke:none;" d="M519 659L520 660L519 659z"/>
<path style="fill:#91795c; stroke:none;" d="M214 660L215 661L214 660z"/>
<path style="fill:#54657c; stroke:none;" d="M517 660L518 661L517 660z"/>
<path style="fill:#766a6c; stroke:none;" d="M216 661L217 662L216 661z"/>
<path style="fill:#797d61; stroke:none;" d="M516 661L517 662L516 661z"/>
<path style="fill:#2f469c; stroke:none;" d="M218.667 662.333C218.222 662.778 219.278 662.722 219.333 662.667C219.778 662.222 218.722 662.278 218.667 662.333z"/>
<path style="fill:#6c746a; stroke:none;" d="M514 662L515 663L514 662z"/>
<path style="fill:#967957; stroke:none;" d="M219 663L220 664L219 663z"/>
<path style="fill:#2342a3; stroke:none;" d="M220.667 663.333C220.222 663.778 221.278 663.722 221.333 663.667C221.778 663.222 220.722 663.278 220.667 663.333z"/>
<path style="fill:#5b6a76; stroke:none;" d="M512 663L513 664L512 663z"/>
<path style="fill:#8d755d; stroke:none;" d="M221 664L222 665L221 664z"/>
<path style="fill:#4e5688; stroke:none;" d="M222 664L223 665L222 664z"/>
<path style="fill:#485e84; stroke:none;" d="M510 664L511 665L510 664z"/>
<path style="fill:#806f66; stroke:none;" d="M223 665L224 666L223 665z"/>
<path style="fill:#3a558e; stroke:none;" d="M508 665L509 666L508 665z"/>
<path style="fill:#686278; stroke:none;" d="M225 666L226 667L225 666z"/>
<path style="fill:#626f72; stroke:none;" d="M507 666L508 667L507 666z"/>
<path style="fill:#9b7b54; stroke:none;" d="M226 667L227 668L226 667z"/>
<path style="fill:#585a82; stroke:none;" d="M227 667L228 668L227 667z"/>
<path style="fill:#4e6380; stroke:none;" d="M505 667L506 668L505 667z"/>
<path style="fill:#90785c; stroke:none;" d="M228 668L229 669L228 668z"/>
<path style="fill:#39558f; stroke:none;" d="M503 668L504 669L503 668z"/>
<path style="fill:#867263; stroke:none;" d="M230 669L231 670L230 669z"/>
<path style="fill:#6b736b; stroke:none;" d="M502 669L503 670L502 669z"/>
<path style="fill:#6e6575; stroke:none;" d="M232 670L233 671L232 670z"/>
<path style="fill:#50637f; stroke:none;" d="M500 670L501 671L500 670z"/>
<path style="fill:#4d558c; stroke:none;" d="M234 671L235 672L234 671z"/>
<path style="fill:#858359; stroke:none;" d="M499 671L500 672L499 671z"/>
<path style="fill:#957a5c; stroke:none;" d="M235 672L236 673L235 672z"/>
<path style="fill:#68726e; stroke:none;" d="M497 672L498 673L497 672z"/>
<path style="fill:#7d6d6b; stroke:none;" d="M237 673L238 674L237 673z"/>
<path style="fill:#485e85; stroke:none;" d="M495 673L496 674L495 673z"/>
<path style="fill:#5d5d80; stroke:none;" d="M239 674L240 675L239 674z"/>
<path style="fill:#838359; stroke:none;" d="M494 674L495 675L494 674z"/>
<path style="fill:#997954; stroke:none;" d="M240 675L241 676L240 675z"/>
<path style="fill:#6d756a; stroke:none;" d="M492 675L493 676L492 675z"/>
<path style="fill:#847365; stroke:none;" d="M242 676L243 677L242 676z"/>
<path style="fill:#53667b; stroke:none;" d="M490 676L491 677L490 676z"/>
<path style="fill:#676278; stroke:none;" d="M244 677L245 678L244 677z"/>
<path style="fill:#848359; stroke:none;" d="M489 677L490 678L489 677z"/>
<path style="fill:#9c7e54; stroke:none;" d="M245 678L246 679L245 678z"/>
<path style="fill:#6e7569; stroke:none;" d="M487 678L488 679L487 678z"/>
<path style="fill:#867262; stroke:none;" d="M247 679L248 680L247 679z"/>
<path style="fill:#576779; stroke:none;" d="M485 679L486 680L485 679z"/>
<path style="fill:#414f91; stroke:none;" d="M249.667 680.333C249.222 680.778 250.278 680.722 250.333 680.667C250.778 680.222 249.722 680.278 249.667 680.333z"/>
<path style="fill:#495e84; stroke:none;" d="M483 680L484 681L483 680z"/>
<path style="fill:#696077; stroke:none;" d="M251 681L252 682L251 681z"/>
<path style="fill:#3e578c; stroke:none;" d="M481 681L482 682L481 681z"/>
<path style="fill:#777b62; stroke:none;" d="M482 681L483 682L482 681z"/>
<path style="fill:#947959; stroke:none;" d="M252 682L253 683L252 682z"/>
<path style="fill:#575a81; stroke:none;" d="M253 682L254 683L253 682z"/>
<path style="fill:#616e73; stroke:none;" d="M480 682L481 683L480 682z"/>
<path style="fill:#897261; stroke:none;" d="M254 683L255 684L254 683z"/>
<path style="fill:#4e5789; stroke:none;" d="M255 683L256 684L255 683z"/>
<path style="fill:#52647d; stroke:none;" d="M478 683L479 684L478 683z"/>
<path style="fill:#796b6e; stroke:none;" d="M256 684L257 685L256 684z"/>
<path style="fill:#3e588b; stroke:none;" d="M476 684L477 685L476 684z"/>
<path style="fill:#af9e39; stroke:none;" d="M477.667 684.333C477.222 684.778 478.278 684.722 478.333 684.667C478.778 684.222 477.722 684.278 477.667 684.333z"/>
<path style="fill:#6a6175; stroke:none;" d="M258 685L259 686L258 685z"/>
<path style="fill:#5e5f80; stroke:none;" d="M260 686L261 687L260 686z"/>
<path style="fill:#5e6c76; stroke:none;" d="M473 686L474 687L473 686z"/>
<path style="fill:#8c755f; stroke:none;" d="M261 687L262 688L261 687z"/>
<path style="fill:#445290; stroke:none;" d="M262 687L263 688L262 687z"/>
<path style="fill:#3f588c; stroke:none;" d="M471 687L472 688L471 687z"/>
<path style="fill:#786b6f; stroke:none;" d="M263 688L264 689L263 688z"/>
<path style="fill:#665f79; stroke:none;" d="M265 689L266 690L265 689z"/>
<path style="fill:#5d6a78; stroke:none;" d="M468 689L469 690L468 689z"/>
<path style="fill:#a07f52; stroke:none;" d="M266 690L267 691L266 690z"/>
<path style="fill:#47528e; stroke:none;" d="M267 690L268 691L267 690z"/>
<path style="fill:#3f588c; stroke:none;" d="M466 690L467 691L466 690z"/>
<path style="fill:#93795c; stroke:none;" d="M268 691L269 692L268 691z"/>
<path style="fill:#7b7e60; stroke:none;" d="M465 691L466 692L465 691z"/>
<path style="fill:#746771; stroke:none;" d="M270 692L271 693L270 692z"/>
<path style="fill:#646f72; stroke:none;" d="M463 692L464 693L463 692z"/>
<path style="fill:#4c5488; stroke:none;" d="M272 693L273 694L272 693z"/>
<path style="fill:#3f588c; stroke:none;" d="M461 693L462 694L461 693z"/>
<path style="fill:#9d7e56; stroke:none;" d="M273 694L274 695L273 694z"/>
<path style="fill:#797d61; stroke:none;" d="M460 694L461 695L460 694z"/>
<path style="fill:#816e66; stroke:none;" d="M275 695L276 696L275 695z"/>
<path style="fill:#636d72; stroke:none;" d="M458 695L459 696L458 695z"/>
<path style="fill:#666179; stroke:none;" d="M277 696L278 697L277 696z"/>
<path style="fill:#4d6282; stroke:none;" d="M456 696L457 697L456 696z"/>
<path style="fill:#2141a4; stroke:none;" d="M279.667 697.333C279.222 697.778 280.278 697.722 280.333 697.667C280.778 697.222 279.722 697.278 279.667 697.333z"/>
<path style="fill:#3e578c; stroke:none;" d="M454 697L455 698L454 697z"/>
<path style="fill:#7f805d; stroke:none;" d="M455 697L456 698L455 697z"/>
<path style="fill:#857362; stroke:none;" d="M280 698L281 699L280 698z"/>
<path style="fill:#66716f; stroke:none;" d="M453 698L454 699L453 698z"/>
<path style="fill:#75686e; stroke:none;" d="M282 699L283 700L282 699z"/>
<path style="fill:#54667d; stroke:none;" d="M451 699L452 700L451 699z"/>
<path style="fill:#63607a; stroke:none;" d="M284 700L285 701L284 700z"/>
<path style="fill:#455c86; stroke:none;" d="M449 700L450 701L449 700z"/>
<path style="fill:#848359; stroke:none;" d="M450 700L451 701L450 700z"/>
<path style="fill:#937959; stroke:none;" d="M285 701L286 702L285 701z"/>
<path style="fill:#3a568f; stroke:none;" d="M447 701L448 702L447 701z"/>
<path style="fill:#717668; stroke:none;" d="M448 701L449 702L448 701z"/>
<path style="fill:#887462; stroke:none;" d="M287 702L288 703L287 702z"/>
<path style="fill:#4b558a; stroke:none;" d="M288 702L289 703L288 702z"/>
<path style="fill:#667070; stroke:none;" d="M446 702L447 703L446 702z"/>
<path style="fill:#6f6571; stroke:none;" d="M289 703L290 704L289 703z"/>
<path style="fill:#4f6280; stroke:none;" d="M444 703L445 704L444 703z"/>
<path style="fill:#9c7c53; stroke:none;" d="M290 704L291 705L290 704z"/>
<path style="fill:#64627a; stroke:none;" d="M291 704L292 705L291 704z"/>
<path style="fill:#415889; stroke:none;" d="M442 704L443 705L442 704z"/>
<path style="fill:#967957; stroke:none;" d="M292 705L293 706L292 705z"/>
<path style="fill:#5e5e7f; stroke:none;" d="M293 705L294 706L293 705z"/>
<path style="fill:#6f7669; stroke:none;" d="M441 705L442 706L441 705z"/>
<path style="fill:#897461; stroke:none;" d="M294 706L295 707L294 706z"/>
<path style="fill:#3f4f90; stroke:none;" d="M295 706L296 707L295 706z"/>
<path style="fill:#5b6978; stroke:none;" d="M439 706L440 707L439 706z"/>
<path style="fill:#7a696b; stroke:none;" d="M296 707L297 708L296 707z"/>
<path style="fill:#41598a; stroke:none;" d="M437 707L438 708L437 707z"/>
<path style="fill:#9e7d53; stroke:none;" d="M297 708L298 709L297 708z"/>
<path style="fill:#62627d; stroke:none;" d="M298 708L299 709L298 708z"/>
<path style="fill:#997a57; stroke:none;" d="M299 709L300 710L299 709z"/>
<path style="fill:#4a528b; stroke:none;" d="M300 709L301 710L300 709z"/>
<path style="fill:#5e6a76; stroke:none;" d="M434 709L435 710L434 709z"/>
<path style="fill:#806e65; stroke:none;" d="M301 710L302 711L301 710z"/>
<path style="fill:#3c578e; stroke:none;" d="M432 710L433 711L432 710z"/>
<path style="fill:#6c6276; stroke:none;" d="M303 711L304 712L303 711z"/>
<path style="fill:#756a6c; stroke:none;" d="M305 712L306 713L305 712z"/>
<path style="fill:#68706e; stroke:none;" d="M429 712L430 713L429 712z"/>
<path style="fill:#726b6c; stroke:none;" d="M307 713L308 714L307 713z"/>
<path style="fill:#4a5f84; stroke:none;" d="M427 713L428 714L427 713z"/>
<path style="fill:#5c5f7d; stroke:none;" d="M309 714L310 715L309 714z"/>
<path style="fill:#83835b; stroke:none;" d="M426 714L427 715L426 714z"/>
<path style="fill:#6c736c; stroke:none;" d="M424 715L425 716L424 715z"/>
<path style="fill:#8b785c; stroke:none;" d="M312 716L313 717L312 716z"/>
<path style="fill:#54647c; stroke:none;" d="M422 716L423 717L422 716z"/>
<path style="fill:#766c6a; stroke:none;" d="M314 717L315 718L314 717z"/>
<path style="fill:#465d86; stroke:none;" d="M420 717L421 718L420 717z"/>
<path style="fill:#2f4a98; stroke:none;" d="M316.667 718.333C316.222 718.778 317.278 718.722 317.333 718.667C317.778 718.222 316.722 718.278 316.667 718.333z"/>
<path style="fill:#737965; stroke:none;" d="M419 718L420 719L419 718z"/>
<path style="fill:#988052; stroke:none;" d="M317 719L318 720L317 719z"/>
<path style="fill:#5a6979; stroke:none;" d="M417 719L418 720L417 719z"/>
<path style="fill:#8c795a; stroke:none;" d="M319 720L320 721L319 720z"/>
<path style="fill:#4a5f83; stroke:none;" d="M415 720L416 721L415 720z"/>
<path style="fill:#807263; stroke:none;" d="M321 721L322 722L321 721z"/>
<path style="fill:#40598a; stroke:none;" d="M413 721L414 722L413 721z"/>
<path style="fill:#797c61; stroke:none;" d="M414 721L415 722L414 721z"/>
<path style="fill:#716a6d; stroke:none;" d="M323 722L324 723L323 722z"/>
<path style="fill:#6b746b; stroke:none;" d="M412 722L413 723L412 722z"/>
<path style="fill:#656475; stroke:none;" d="M325 723L326 724L325 723z"/>
<path style="fill:#5c6a78; stroke:none;" d="M410 723L411 724L410 723z"/>
<path style="fill:#8f7958; stroke:none;" d="M326 724L327 725L326 724z"/>
<path style="fill:#515a83; stroke:none;" d="M327 724L328 725L327 724z"/>
<path style="fill:#465c86; stroke:none;" d="M408 724L409 725L408 724z"/>
<path style="fill:#87765e; stroke:none;" d="M328 725L329 726L328 725z"/>
<path style="fill:#747865; stroke:none;" d="M407 725L408 726L407 725z"/>
<path style="fill:#796f68; stroke:none;" d="M330 726L331 727L330 726z"/>
<path style="fill:#626e73; stroke:none;" d="M405 726L406 727L405 726z"/>
<path style="fill:#6b6871; stroke:none;" d="M332 727L333 728L332 727z"/>
<path style="fill:#516280; stroke:none;" d="M403 727L404 728L403 727z"/>
<path style="fill:#555e80; stroke:none;" d="M334 728L335 729L334 728z"/>
<path style="fill:#87775c; stroke:none;" d="M335 729L336 730L335 729z"/>
<path style="fill:#636e71; stroke:none;" d="M400 729L401 730L400 729z"/>
<path style="fill:#776e68; stroke:none;" d="M337 730L338 731L337 730z"/>
<path style="fill:#455d88; stroke:none;" d="M398 730L399 731L398 730z"/>
<path style="fill:#5f6278; stroke:none;" d="M339 731L340 732L339 731z"/>
<path style="fill:#947e55; stroke:none;" d="M340 732L341 733L340 732z"/>
<path style="fill:#6a736c; stroke:none;" d="M395 732L396 733L395 732z"/>
<path style="fill:#7e7263; stroke:none;" d="M342 733L343 734L342 733z"/>
<path style="fill:#4d6083; stroke:none;" d="M393 733L394 734L393 733z"/>
<path style="fill:#6a6870; stroke:none;" d="M344 734L345 735L344 734z"/>
<path style="fill:#3a568e; stroke:none;" d="M391 734L392 735L391 734z"/>
<path style="fill:#987f53; stroke:none;" d="M345 735L346 736L345 735z"/>
<path style="fill:#707568; stroke:none;" d="M390 735L391 736L390 735z"/>
<path style="fill:#85755f; stroke:none;" d="M347 736L348 737L347 736z"/>
<path style="fill:#57687a; stroke:none;" d="M388 736L389 737L388 736z"/>
<path style="fill:#756d6a; stroke:none;" d="M349 737L350 738L349 737z"/>
<path style="fill:#475d85; stroke:none;" d="M386 737L387 738L386 737z"/>
<path style="fill:#3a558e; stroke:none;" d="M384 738L385 739L384 738z"/>
<path style="fill:#787b62; stroke:none;" d="M385 738L386 739L385 738z"/>
<path style="fill:#967f54; stroke:none;" d="M352 739L353 740L352 739z"/>
<path style="fill:#666f6f; stroke:none;" d="M383 739L384 740L383 739z"/>
<path style="fill:#847660; stroke:none;" d="M354 740L355 741L354 740z"/>
<path style="fill:#52647d; stroke:none;" d="M381 740L382 741L381 740z"/>
<path style="fill:#7e7362; stroke:none;" d="M356 741L357 742L356 741z"/>
<path style="fill:#435a88; stroke:none;" d="M379 741L380 742L379 741z"/>
<path style="fill:#6d6c6f; stroke:none;" d="M358 742L359 743L358 742z"/>
<path style="fill:#707668; stroke:none;" d="M378 742L379 743L378 742z"/>
<path style="fill:#585e7d; stroke:none;" d="M360 743L361 744L360 743z"/>
<path style="fill:#66716e; stroke:none;" d="M376 743L377 744L376 743z"/>
<path style="fill:#8a785c; stroke:none;" d="M361 744L362 745L361 744z"/>
<path style="fill:#647074; stroke:none;" d="M374 744L375 745L374 744z"/>
<path style="fill:#a68a47; stroke:none;" d="M362.333 745.667C362.278 745.722 362.222 746.778 362.667 746.333C362.722 746.278 362.778 745.222 362.333 745.667z"/>
<path style="fill:#42578b; stroke:none;" d="M363.333 745.667C363.278 745.722 363.222 746.778 363.667 746.333C363.722 746.278 363.778 745.222 363.333 745.667z"/>
<path style="fill:#64736e; stroke:none;" d="M371 746L372 747L371 746z"/>
<path style="fill:#50657c; stroke:none;" d="M369 747L370 748L369 747z"/>
<path style="fill:#897a5b; stroke:none;" d="M364 748L365 749L364 748z"/>
<path style="fill:#3e578c; stroke:none;" d="M367 748L368 749L367 748z"/>
<path style="fill:#7c7563; stroke:none;" d="M365.667 749.333C365.222 749.778 366.278 749.722 366.333 749.667C366.778 749.222 365.722 749.278 365.667 749.333z"/>
</svg>
